<svg xmlns="http://www.w3.org/2000/svg" viewBox="0 0 554 554" width="554" height="554" fill="none">
  <g id="watering-can-bg">
    <svg x="358.49339999999995" y="290.4622" viewBox="0 0 115.678 88.668" width="115.67520000000005" height="88.6954" overflow="visible">
      
<path id="Vector" d="M24.1597 12.7523L11.6474 5.18601L18.3475 16.7769L31.3096 24.7916L24.1712 12.7638L24.1597 12.7523ZM18.3475 16.7769L11.6474 5.18601L0 16.7999L5.80066 29.2762L18.336 16.7769H18.3475ZM5.80066 29.2762L19.6506 36.394L31.298 24.7801L18.336 16.7654L5.80066 29.2647V29.2762ZM18.3475 16.7769L11.6474 5.18601L0 16.7999L5.80066 29.2762L18.336 16.7769H18.3475ZM5.80066 29.2762L19.6506 36.394L31.298 24.7801L18.336 16.7654L5.80066 29.2647V29.2762ZM97.3075 43.3624L60.1512 53.0904L28.1959 43.3624L62.7575 36.394L97.319 43.3624H97.3075ZM97.2268 43.1669L60.0705 52.8949V88.668L97.2268 76.3527V43.1669ZM28.1152 76.3527L60.0705 88.668V52.8949L28.1152 43.1669V76.3527ZM62.6767 36.187L97.2383 43.1554L115.678 9.11865L81.1165 4.73754L62.6767 36.1756V36.187ZM81.105 4.74905L115.667 9.13013L113.452 3.96713L79.7557 0L81.105 4.73754V4.74905Z" fill="#FCFFF7"/>

    </svg>
  </g>
  <g id="soil-sprout">
    <svg x="189.6342" y="456.16360000000003" viewBox="0 0 145.465 97.9599" width="145.48039999999997" height="97.9472" overflow="visible">
      
<g id="Group 10054">
<path id="Vector" d="M0.444092 97.3638C1.02069 94.0291 3.70765 91.4073 7.09808 90.9589C7.09808 90.9359 7.09808 90.9129 7.09808 90.8784C7.09808 88.4176 9.10466 86.4168 11.5725 86.4168C12.7949 86.4168 13.902 86.9113 14.7092 87.7047C15.2743 85.8879 16.958 84.5655 18.9646 84.5655C21.2018 84.5655 23.0354 86.2098 23.3698 88.3486C24.0387 88.1991 24.7421 88.1186 25.4571 88.1186C27.948 88.1186 30.2083 89.05 31.9381 90.5564C32.7569 89.6135 33.9562 89.0155 35.294 89.0155C36.1012 89.0155 36.8508 89.2455 37.5081 89.625C38.1078 85.9108 41.3252 83.0821 45.2231 83.0821C49.5476 83.0821 53.0418 86.5778 53.0418 90.8784C53.0418 91.0163 53.0303 91.1544 53.0187 91.2923C54.6563 91.8443 56.0517 92.9252 56.9973 94.328C57.7353 93.7991 58.6348 93.4771 59.6035 93.4771C61.8753 93.4771 63.732 95.1675 64.0203 97.3638H0.455618H0.444092ZM108.338 6.38448C98.997 10.7311 92.1816 15.8711 93.1157 17.8719C94.0498 19.8727 102.376 17.9639 111.728 13.6173C121.081 9.27072 127.885 4.13069 126.951 2.12988C126.017 0.12907 117.691 2.0379 108.338 6.38448ZM64.4009 26.818C64.5623 27.1515 65.9577 26.8295 67.5261 26.1051C69.0944 25.3807 70.2476 24.5067 70.0862 24.1733M108.338 6.38448C98.997 10.7311 92.1816 15.8711 93.1157 17.8719L110.195 45.1933C110.195 45.1933 115.349 47.378 125.336 42.7325C135.323 38.0869 136.961 32.7514 136.961 32.7514L126.951 2.14139C126.017 0.14058 117.691 2.04941 108.338 6.39599V6.38448ZM108.43 42.353L102.664 33.1194L69.9824 24.0698C69.5788 23.9203 68.3448 24.2423 66.9725 24.8862C65.4042 25.6221 64.251 26.4845 64.4124 26.818C64.4355 26.864 64.4931 26.8985 64.5739 26.9215L108.453 42.353H108.43ZM124.414 1.33645V1.35947C125.774 1.32497 126.674 1.56644 126.939 2.14139L127.539 3.98122C133.316 3.1763 139.002 6.57996 140.87 12.3064C142.727 18.0214 140.143 24.0928 135.012 26.841L136.038 29.9917C142.888 26.657 146.417 18.7343 143.995 11.2945C141.343 3.15328 132.578 -1.29678 124.414 1.34796V1.33645Z" fill="#FCFFF7"/>
<path id="Vector_2" d="M32.0188 91.1181C31.6959 91.1181 31.4422 90.8651 31.4422 90.5432V79.6537C31.4422 79.3317 31.6959 79.0788 32.0188 79.0788C32.3417 79.0788 32.5954 79.3317 32.5954 79.6537V90.5432C32.5954 90.8651 32.3417 91.1181 32.0188 91.1181ZM38.0385 77.2849C39.5377 75.7901 40.3219 73.8698 40.4026 71.9149C40.4141 71.57 40.1143 71.271 39.7683 71.2825C37.8079 71.3745 35.882 72.1564 34.3829 73.6398C32.7223 75.2956 31.9381 77.4804 32.0073 79.6422C34.1753 79.7112 36.3664 78.9293 38.027 77.2734L38.0385 77.2849ZM25.9991 77.2849C27.6597 78.9408 29.8508 79.7227 32.0188 79.6537C32.088 77.4919 31.3038 75.3071 29.6432 73.6513C28.144 72.1564 26.2182 71.3745 24.2577 71.294C23.9118 71.2825 23.6119 71.5815 23.6235 71.9264C23.7157 73.8813 24.4999 75.8016 25.9875 77.2964L25.9991 77.2849ZM64.5392 97.7185C64.643 97.592 64.7007 97.431 64.6776 97.27C64.3547 94.7748 62.2097 92.8889 59.6957 92.8889C58.8308 92.8889 57.989 93.1074 57.2394 93.5444C56.3284 92.3715 55.0944 91.4516 53.7106 90.8996V90.8766C53.7106 86.2541 49.9396 82.5054 45.3153 82.5054C41.429 82.5054 38.1308 85.1042 37.1852 88.7953C35.4208 88.0939 33.3796 88.5194 31.9958 89.7957C29.7355 88.0134 26.8294 87.22 23.9233 87.6914C23.3352 85.5181 21.3747 84.0003 19.0683 84.0003C17.1425 84.0003 15.4242 85.0812 14.5823 86.7715C13.7405 86.1736 12.7372 85.8631 11.6878 85.8631C9.07002 85.8631 6.90199 87.8639 6.67135 90.4856C3.24633 91.1411 0.593955 93.8203 0.00582051 97.2815C-0.0172436 97.454 0.0288853 97.615 0.132674 97.753C0.236462 97.8794 0.397917 97.9599 0.570898 97.9599H64.1356C64.297 97.9599 64.4585 97.891 64.5738 97.7645L64.5392 97.7185ZM7.27102 91.4976C7.55932 91.4631 7.76689 91.1411 7.76689 90.8536C7.76689 88.7148 9.50824 86.967 11.6647 86.967C12.6911 86.967 13.6598 87.3695 14.3978 88.0824C14.5362 88.2204 14.7438 88.2779 14.9398 88.2319C15.1359 88.1859 15.2858 88.0364 15.355 87.8409C15.8624 86.2081 17.35 85.1042 19.0568 85.1042C20.9826 85.1042 22.5971 86.4955 22.8854 88.4044C22.9085 88.5653 23.0007 88.7033 23.1276 88.7953C23.266 88.8873 23.4159 88.9218 23.5773 88.8873C26.5065 88.2664 29.4587 89.0598 31.6382 90.9686C31.7536 91.0721 31.9035 91.1296 32.0534 91.1066C32.2033 91.1066 32.3532 91.0261 32.4455 90.9111C33.6448 89.5428 35.6514 89.1518 37.289 90.0947C37.4504 90.1867 37.658 90.1982 37.8194 90.1177C37.9924 90.0372 38.1077 89.8762 38.1423 89.6922C38.7189 86.1736 41.7173 83.6323 45.2922 83.6323C49.2823 83.6323 52.5343 86.875 52.5343 90.8536C52.5343 90.9341 52.5343 91.0031 52.5343 91.0836V91.2446C52.5113 91.4976 52.6727 91.739 52.9149 91.8195C54.4141 92.3255 55.7172 93.3259 56.6052 94.6253C56.6974 94.7517 56.8243 94.8437 56.9857 94.8667C57.1356 94.8897 57.2971 94.8667 57.4239 94.7632C58.0928 94.2803 58.877 94.0158 59.6957 94.0158C61.414 94.0158 62.9017 95.1542 63.3975 96.7526H1.26281C2.01239 93.9583 4.3534 91.877 7.28255 91.4861L7.27102 91.4976ZM25.9529 63.4748C26.0567 63.3713 26.1374 63.2448 26.1951 63.1068C26.2528 62.9688 26.2874 62.8193 26.2874 62.6698C26.2874 62.3593 26.1605 62.0604 25.9529 61.8534C25.5263 61.4279 24.7421 61.4164 24.3154 61.8534C24.1078 62.0604 23.981 62.3593 23.981 62.6698C23.981 62.8193 24.004 62.9688 24.0732 63.1068C24.1309 63.2448 24.2116 63.3713 24.3154 63.4748C24.3731 63.5322 24.4307 63.5782 24.4884 63.6242C24.5576 63.6587 24.6268 63.6932 24.696 63.7277C24.7651 63.7622 24.8343 63.7737 24.9035 63.7967C24.9842 63.7967 25.0534 63.8197 25.1342 63.8197C25.434 63.8197 25.7338 63.6932 25.9529 63.4748ZM25.2956 57.8518C24.6613 57.7598 24.2231 57.1734 24.3154 56.5409C24.4077 55.92 24.9842 55.483 25.6185 55.575C26.2528 55.6555 26.691 56.242 26.5987 56.8744C26.518 57.4493 26.0221 57.8633 25.4571 57.8633C25.4571 57.8633 25.3533 57.8633 25.2956 57.8633V57.8518ZM26.4604 51.9988C25.8492 51.8034 25.5263 51.1479 25.7223 50.55C25.9184 49.9406 26.5757 49.6186 27.1753 49.8141C27.7865 50.0095 28.1094 50.665 27.9134 51.2629C27.7519 51.7459 27.3022 52.0564 26.8179 52.0564C26.7025 52.0564 26.5757 52.0333 26.4604 51.9988ZM28.6284 46.4449C28.0633 46.1459 27.8557 45.4445 28.1556 44.881C28.4554 44.3291 29.1589 44.1221 29.7124 44.4211C30.2775 44.72 30.485 45.41 30.1852 45.9734C29.9776 46.3644 29.5855 46.5829 29.1704 46.5829C28.9859 46.5829 28.8014 46.5369 28.6284 46.4449ZM31.7305 41.3509C31.2346 40.9599 31.1424 40.2355 31.546 39.7295C31.9381 39.2351 32.6646 39.1546 33.1605 39.5456C33.6564 39.9365 33.7486 40.6609 33.3565 41.1554C33.1259 41.4429 32.7915 41.5924 32.4455 41.5924C32.2033 41.5924 31.9496 41.5119 31.7305 41.3509ZM35.6745 36.8663C35.2478 36.3949 35.2939 35.6704 35.7667 35.245C36.2395 34.8195 36.9661 34.854 37.3927 35.3254C37.8194 35.8084 37.7733 36.5328 37.3005 36.9583C37.0814 37.1538 36.8161 37.2458 36.5394 37.2458C36.2165 37.2458 35.9051 37.1193 35.6745 36.8663ZM40.3334 33.1292C39.999 32.5887 40.1604 31.8873 40.7024 31.5423C41.2444 31.2089 41.9594 31.3813 42.2939 31.9103C42.6283 32.4507 42.4669 33.1637 41.9249 33.4971C41.7403 33.6236 41.5212 33.6696 41.3136 33.6696C40.9331 33.6696 40.5525 33.4856 40.3334 33.1292ZM45.569 30.2545C45.3383 29.668 45.6151 29.0011 46.2148 28.7596C46.8029 28.5296 47.4718 28.8171 47.7139 29.4035C47.9561 29.99 47.6678 30.6569 47.0681 30.8984C46.9298 30.9559 46.7914 30.9789 46.6415 30.9789C46.1802 30.9789 45.7535 30.7029 45.569 30.2545ZM51.2312 28.3456C51.1044 27.7132 51.4964 27.1038 52.1307 26.9773C52.7534 26.8508 53.3647 27.2532 53.4915 27.8742C53.6184 28.4951 53.2147 29.1046 52.592 29.231C52.5113 29.254 52.4421 29.254 52.3613 29.254C51.8309 29.254 51.3465 28.8861 51.2312 28.3456ZM58.3234 28.5526C58.1735 28.5526 58.0236 28.5181 57.8737 28.4606C57.7353 28.4031 57.6084 28.3226 57.5047 28.2076C57.2855 28.0006 57.1702 27.7017 57.1702 27.4027C57.1702 27.2532 57.1933 27.1037 57.2509 26.9542C57.3086 26.8163 57.4009 26.6898 57.5047 26.5863C57.9429 26.1608 58.704 26.1608 59.1307 26.5863C59.246 26.6898 59.3267 26.8163 59.3844 26.9542C59.442 27.1037 59.4766 27.2532 59.4766 27.4027C59.4766 27.7017 59.3498 28.0006 59.1307 28.2076C59.0269 28.3226 58.9 28.4031 58.7616 28.4606C58.6233 28.5181 58.4733 28.5526 58.3234 28.5526ZM32.8837 64.0957C32.8145 64.0957 32.7338 64.0957 32.6646 64.0612C32.5839 64.0497 32.5147 64.0152 32.4455 63.9922C32.3763 63.9577 32.3071 63.9117 32.2494 63.8657C32.1802 63.8312 32.1226 63.7622 32.088 63.7162C31.9727 63.6127 31.9035 63.4747 31.8574 63.3253C31.8112 63.1873 31.7882 63.0378 31.7997 62.8883C31.8112 62.7388 31.8343 62.5894 31.9035 62.4514C31.9727 62.3134 32.0534 62.1984 32.1803 62.0834C32.2264 62.0374 32.284 61.9914 32.3648 61.9569C32.4224 61.9109 32.4916 61.8879 32.5724 61.8649C32.6415 61.8304 32.7107 61.8189 32.7914 61.8074C33.0106 61.7729 33.2412 61.8074 33.4603 61.9109C33.5987 61.9799 33.714 62.0604 33.8178 62.1754C33.9101 62.2904 34.0023 62.4283 34.0485 62.5663C34.0946 62.7043 34.1176 62.8538 34.1061 63.0033C34.0946 63.1528 34.0715 63.3023 34.0023 63.4403C33.9331 63.5897 33.8409 63.7047 33.7256 63.8082C33.6102 63.9117 33.4834 63.9807 33.345 64.0382C33.1951 64.0842 33.0452 64.1072 32.8952 64.0957H32.8837ZM32.9298 58.2428C32.2956 58.1738 31.8343 57.6103 31.9035 56.9779C31.9727 56.3454 32.5377 55.8855 33.172 55.9545C33.8063 56.0235 34.2676 56.5869 34.1984 57.2194C34.1292 57.8403 33.5987 58.2772 32.9875 58.2542H32.9298V58.2428ZM33.8409 52.4703C33.2297 52.2978 32.8837 51.6769 33.0452 51.056C33.2181 50.4465 33.8409 50.09 34.4636 50.2625C35.0748 50.435 35.4438 51.0559 35.2709 51.6769C35.1209 52.2058 34.6251 52.5393 34.0946 52.5163C34.0139 52.5163 33.9216 52.4933 33.8409 52.4703ZM35.7206 46.9508C35.144 46.6634 34.9018 45.9849 35.1786 45.41C35.4669 44.8351 36.1473 44.5936 36.7239 44.8695C37.3005 45.1455 37.5427 45.8355 37.2659 46.4104C37.0583 46.8359 36.6201 47.0773 36.1703 47.0543C36.0204 47.0543 35.8705 47.0198 35.7206 46.9508ZM38.5344 41.8108C38.0155 41.4544 37.8886 40.7299 38.2576 40.2125C38.6151 39.7065 39.3417 39.58 39.8606 39.9365C40.368 40.3045 40.4949 41.0289 40.1374 41.5463C39.8952 41.8798 39.5146 42.0523 39.1341 42.0293C38.9265 42.0293 38.7074 41.9488 38.5344 41.8108ZM42.167 37.2343C41.7173 36.7858 41.7057 36.0614 42.167 35.6129H42.1785C42.6168 35.1645 43.3548 35.1645 43.8046 35.6129C44.2543 36.0614 44.2543 36.7858 43.8046 37.2343C43.5624 37.4757 43.2395 37.5907 42.9281 37.5677C42.6514 37.5562 42.3861 37.4412 42.167 37.2343ZM40.5756 67.9823C40.4257 67.9823 40.2758 67.9478 40.1258 67.8903C39.9875 67.8328 39.8606 67.7523 39.7568 67.6373C39.5377 67.4304 39.4224 67.1314 39.4224 66.8324C39.4224 66.5335 39.5377 66.223 39.7568 66.016C39.8606 65.901 39.9875 65.8205 40.1258 65.763C40.4141 65.648 40.7255 65.648 41.0138 65.763C41.1522 65.8205 41.2791 65.901 41.3828 66.016C41.4405 66.062 41.4866 66.1195 41.5327 66.1885C41.5673 66.246 41.602 66.315 41.6366 66.384C41.6596 66.453 41.6827 66.5335 41.7057 66.6025C41.7173 66.6714 41.7288 66.752 41.7288 66.8324C41.7288 66.9014 41.7288 66.9819 41.7057 67.0509C41.6827 67.1199 41.6596 67.2004 41.6366 67.2694C41.602 67.3384 41.5673 67.4074 41.5327 67.4649C41.4866 67.5339 41.4405 67.5914 41.3828 67.6373C41.2791 67.7523 41.1522 67.8328 41.0138 67.8903C40.8754 67.9478 40.7255 67.9823 40.5756 67.9823ZM38.7189 61.336C38.6843 60.7035 39.1802 60.1746 39.8145 60.1401C40.4487 60.1171 40.9907 60.6 41.0253 61.2325C41.0484 61.8764 40.5525 62.4054 39.9183 62.4399H39.8721C39.2609 62.4399 38.742 61.9569 38.7189 61.336ZM39.9413 56.8629C39.3071 56.7824 38.8573 56.2075 38.938 55.575C39.0072 54.9426 39.5838 54.4941 40.2181 54.5746C40.8524 54.6551 41.3021 55.23 41.2214 55.851C41.1522 56.4374 40.6563 56.8744 40.0797 56.8744C40.0797 56.8744 39.9875 56.8744 39.9413 56.8744V56.8629ZM40.887 51.3549C40.2758 51.1824 39.9183 50.5385 40.1028 49.9291C40.2758 49.3196 40.9215 48.9746 41.5327 49.1586C42.1439 49.3311 42.4899 49.9751 42.3169 50.5845C42.167 51.079 41.7057 51.4009 41.2099 51.4009C41.0945 51.4009 40.9907 51.4009 40.887 51.3549ZM42.709 46.0884C42.1324 45.8125 41.8902 45.1225 42.167 44.5591C42.4438 43.9841 43.1357 43.7426 43.7123 44.0186C44.2774 44.2946 44.5196 44.973 44.2428 45.548C44.0467 45.9619 43.6316 46.2034 43.2049 46.2034C43.0434 46.2034 42.8705 46.1689 42.709 46.0884ZM45.3614 41.1784C44.8425 40.8104 44.7156 40.0975 45.0846 39.58C45.4421 39.0626 46.1686 38.9246 46.6876 39.2926C47.2065 39.6605 47.3334 40.3735 46.9759 40.8909C46.7568 41.2129 46.3993 41.3854 46.0418 41.3854C45.8111 41.3854 45.5805 41.3164 45.3729 41.1784H45.3614ZM48.7864 36.7628C48.3251 36.3143 48.3251 35.5899 48.7634 35.13C49.2016 34.6815 49.9396 34.67 50.3894 35.1185C50.8507 35.5554 50.8622 36.2914 50.4124 36.7398C50.1933 36.9698 49.8935 37.0848 49.5937 37.0848C49.2938 37.0848 49.0055 36.9813 48.7864 36.7628ZM53.8029 33.4281C53.503 33.4281 53.2147 33.3017 52.9956 33.0832C52.7765 32.8647 52.6497 32.5772 52.6497 32.2782C52.6497 32.1173 52.6842 31.9678 52.7419 31.8298C52.7996 31.6918 52.8803 31.5653 52.9956 31.4618C53.4223 31.0249 54.1834 31.0249 54.6216 31.4618C54.7254 31.5653 54.8177 31.6918 54.8753 31.8298C54.933 31.9678 54.9561 32.1173 54.9561 32.2782C54.9561 32.5772 54.8407 32.8647 54.6216 33.0832C54.4025 33.3017 54.1142 33.4281 53.8029 33.4281ZM136.845 30.2314L137.606 32.5427C137.641 32.6577 137.641 32.7727 137.606 32.8877C137.537 33.1177 135.784 38.5222 125.671 43.2252C120.435 45.663 116.491 46.2609 113.885 46.2609C111.452 46.2609 110.172 45.7435 110.068 45.6975C109.964 45.6515 109.872 45.571 109.803 45.4675L108.142 42.8112L64.4585 27.4487C64.4585 27.4487 64.4354 27.4487 64.4239 27.4372C64.2394 27.3682 64.0779 27.2532 63.9741 27.0463C63.9165 26.9313 63.8703 26.7243 63.9741 26.4598C64.2855 25.5974 66.2344 24.6315 66.8341 24.367C67.4222 24.091 69.4173 23.2171 70.2822 23.5391L101.511 32.1863L92.7581 18.1806V18.1576C92.7581 18.1461 92.7351 18.1346 92.7351 18.1231C92.1354 16.8467 93.4616 14.9839 96.6675 12.5576C99.5736 10.3614 103.679 7.99258 108.234 5.87679C112.789 3.76099 117.252 2.13963 120.804 1.33471C122.211 1.01274 123.399 0.840254 124.379 0.794258C128.473 -0.528115 132.844 -0.194651 136.672 1.76016C140.512 3.71497 143.349 7.02667 144.687 11.1203C147.097 18.5256 143.741 26.6553 136.88 30.2659L136.845 30.2314ZM65.9346 26.1148C66.3382 25.9884 66.811 25.8159 67.3761 25.5514C67.9296 25.2869 68.3678 25.0454 68.7253 24.8155C68.3217 24.942 67.8489 25.1144 67.2954 25.3789C66.7418 25.6434 66.2921 25.8849 65.9346 26.1148ZM107.162 41.2474L102.376 33.6006L70.5589 24.7925C69.9939 25.5744 68.3909 26.3563 67.872 26.6093C67.503 26.7818 67.1454 26.9197 66.7995 27.0577L107.173 41.2589L107.162 41.2474ZM93.7269 17.5942C93.9114 17.9966 95.2837 18.4336 99.2276 17.5366C102.699 16.7432 107.081 15.1564 111.567 13.0751C116.053 10.9938 120.089 8.65952 122.926 6.52072C126.097 4.12895 126.674 2.81808 126.512 2.39262V2.35813C126.443 2.24314 126.305 2.13962 126.028 2.04763C125.924 2.01314 125.774 1.99017 125.625 1.96717C125.544 1.95567 125.463 1.94417 125.371 1.93267C125.348 1.93267 125.325 1.93267 125.302 1.93267C125.083 1.92117 124.829 1.90967 124.529 1.93267C124.529 1.93267 124.517 1.93267 124.506 1.93267C124.402 1.93267 124.31 1.93265 124.206 1.94415C124.091 1.94415 123.964 1.96714 123.826 1.97864C123.676 1.99014 123.514 2.01315 123.353 2.02465C123.157 2.04765 122.938 2.08216 122.707 2.11666C122.569 2.13966 122.43 2.16265 122.28 2.18565C121.888 2.25464 121.461 2.33511 121 2.4501C117.529 3.24353 113.147 4.83038 108.661 6.91168C104.175 8.99298 100.139 11.3273 97.3018 13.4661C94.0728 15.9038 93.5308 17.2262 93.7153 17.6287L93.7269 17.5942ZM136.442 32.7037L135.6 30.128L134.573 26.9773L127.089 4.10595C126.443 5.06035 125.302 6.16426 123.629 7.42914C120.723 9.62543 116.618 11.9942 112.063 14.11C107.508 16.2258 103.045 17.8471 99.4929 18.652C97.8784 19.02 96.5407 19.204 95.4797 19.204C95.1914 19.204 94.9492 19.181 94.7071 19.1465L103.241 32.7842L109.007 42.0178L110.667 44.6741C111.59 44.9615 116.537 46.1804 125.175 42.1673C133.812 38.1542 136.061 33.5891 136.43 32.6922L136.442 32.7037ZM135.438 25.9424C140.005 23.1481 142.092 17.5827 140.42 12.4426C138.736 7.29114 133.766 4.02547 128.404 4.45093L135.438 25.9424ZM143.545 11.4307C142.311 7.6361 139.671 4.55441 136.107 2.74908C133.282 1.31172 130.157 0.817282 127.078 1.28874C127.124 1.32323 127.158 1.3692 127.204 1.4037C127.227 1.4267 127.262 1.44969 127.285 1.47269C127.4 1.58768 127.493 1.7142 127.562 1.86368L128.046 3.32403C134.031 2.72609 139.647 6.34824 141.527 12.0977C143.395 17.8356 140.997 24.0565 135.819 27.0808L136.488 29.1391C142.738 25.7354 145.771 18.2496 143.557 11.4422L143.545 11.4307Z" fill="#2A363B"/>
</g>

    </svg>
  </g>
  <g id="arrow-down">
    <svg x="247.915" y="144.7602" viewBox="0 0 71.8793 82.6771" width="71.85379999999999" height="82.6568" overflow="visible">
      
<path id="Vector" d="M57.2567 39.1077L26.6737 46.2601L0 39.1077L29.2799 31.9554L57.2567 39.1077ZM26.6737 46.2601L0 39.1077V72.926L26.6737 82.6771V46.2601ZM26.6737 82.6771L57.2567 72.926V39.1077L26.6737 46.2601V82.6771ZM26.6737 46.2601L0 39.1077V72.926L26.6737 82.6771V46.2601ZM26.6737 82.6771L57.2567 72.926V39.1077L26.6737 46.2601V82.6771ZM42.1843 6.86484L8.81049 0L37.9751 18.0763L71.8793 23.5497L42.1958 6.86484H42.1843ZM37.9751 18.0878L8.81049 0.0114926L6.14659 7.11782L34.5616 27.2064L37.9866 18.0993L37.9751 18.0878ZM34.55 27.1949L68.7426 31.8749L71.8678 23.5612L37.9635 18.0878L34.5385 27.1949H34.55Z" fill="#FCFFF7"/>

    </svg>
  </g>
  <g id="arrow-left">
    <svg x="86.3132" y="311.2926" viewBox="0 0 103.29 65.5623" width="103.32100000000005" height="65.5382" overflow="visible">
      
<path id="Vector" d="M78.5653 0C64.9113 0 53.8406 10.1995 53.8406 22.7908C53.8406 30.6561 58.1651 37.5899 64.7384 41.695C68.6823 44.1557 75.4747 44.7882 78.5653 43.1093C81.6559 44.7767 90.2242 43.5578 94.5372 40.1886C99.8881 36.003 103.29 29.7592 103.29 22.7908C103.29 10.1995 92.2193 0 78.5653 0ZM86.8338 15.4085C85.2308 13.8677 81.9211 11.6599 78.1847 11.6369C74.4138 11.6139 71.6576 13.6492 69.8932 15.719C69.7548 15.88 69.5818 15.719 69.6395 15.489C70.1469 13.2352 71.4846 10.7975 73.249 9.77406C73.3643 9.70507 73.4335 9.56707 73.3874 9.44058C72.9261 8.07222 71.7729 6.53135 69.6395 5.048C69.4896 4.94451 69.5588 4.72603 69.7548 4.72603C72.6378 4.79502 74.6559 6.03692 75.7284 7.00282C75.8783 7.14081 76.109 7.09479 76.1897 6.91081C76.7317 5.68043 77.8272 4.12811 78.7729 3.09321C78.8767 2.98972 79.0958 2.93222 79.1419 3.19669C79.2688 3.90962 79.4994 5.46198 79.6032 7.01433C79.6147 7.24431 79.8569 7.35928 80.0529 7.24429C82.4055 5.86442 85.7152 6.11742 87.9524 7.62377C88.1023 7.72726 88.0908 7.95722 87.9293 7.95722C86.015 8.02621 84.1814 8.46319 82.9705 9.13013C82.763 9.24512 82.7976 9.54407 83.0167 9.64756C85.2424 10.7859 86.7415 13.4537 87.1336 15.213C87.1797 15.42 86.9837 15.5465 86.8568 15.42L86.8338 15.4085ZM0.597058 14.1321C2.52291 21.2844 8.86554 33.6458 18.5179 45.1906C28.1702 56.7355 36.381 59.8173 46.7829 64.3938C56.3892 68.6139 61.4171 60.6452 55.1783 52.5959C49.493 45.2596 47.152 32.7258 38.3761 22.0549C30.5919 12.6028 21.2048 8.22172 10.8029 5.61147C1.17367 3.1967 -1.32879 6.9913 0.608593 14.1321H0.597058ZM44.661 50.8481L46.4485 49.0658C46.9213 48.5943 47.6825 48.5943 48.1553 49.0658C48.6281 49.5372 48.6281 50.2962 48.1553 50.7676L46.3678 52.5499C46.1372 52.7799 45.8258 52.9064 45.5144 52.9064C45.2031 52.9064 44.8917 52.7914 44.661 52.5499C44.1882 52.0785 44.1882 51.3196 44.661 50.8481ZM31.2493 28.7127L33.0367 26.9304C33.5096 26.4589 34.2707 26.4589 34.7435 26.9304C35.2163 27.4018 35.2163 28.1608 34.7435 28.6322L32.956 30.4146C32.7254 30.6445 32.414 30.771 32.1026 30.771C31.7913 30.771 31.4799 30.656 31.2493 30.4146C30.7765 29.9431 30.7765 29.1842 31.2493 28.7127ZM23.5574 40.3266L25.3449 38.5443C25.8177 38.0728 26.5788 38.0728 27.0516 38.5443C27.5244 39.0157 27.5244 39.7747 27.0516 40.2461L25.2641 42.0285C25.0335 42.2584 24.7221 42.3849 24.4108 42.3849C24.0994 42.3849 23.788 42.2699 23.5574 42.0285C23.0846 41.557 23.0846 40.7981 23.5574 40.3266ZM15.2658 29.5981L17.0533 27.8158C17.5261 27.3444 18.2872 27.3444 18.76 27.8158C19.2329 28.2873 19.2329 29.0462 18.76 29.5176L16.9726 31.3C16.7419 31.53 16.4306 31.6565 16.1192 31.6565C15.8078 31.6565 15.4965 31.5415 15.2658 31.3C14.793 30.8285 14.793 30.0696 15.2658 29.5981ZM14.3779 15.5465L16.1653 13.7642C16.6381 13.2927 17.3993 13.2927 17.8721 13.7642C18.3449 14.2356 18.3449 14.9945 17.8721 15.466L16.0846 17.2483C15.854 17.4783 15.5426 17.6048 15.2312 17.6048C14.9199 17.6048 14.6085 17.4898 14.3779 17.2483C13.9051 16.7769 13.9051 16.0179 14.3779 15.5465ZM7.10114 14.6496L8.88861 12.8673C9.36142 12.3958 10.1225 12.3958 10.5954 12.8673C11.0682 13.3387 11.0682 14.0976 10.5954 14.5691L8.80789 16.3514C8.57724 16.5814 8.26588 16.7079 7.95452 16.7079C7.64315 16.7079 7.33178 16.5929 7.10114 16.3514C6.62832 15.88 6.62832 15.121 7.10114 14.6496Z" fill="#2A363B"/>

    </svg>
  </g>
  <g id="people">
    <svg x="6.9804" y="0.9972" viewBox="0 0 94.3205 88.8192" width="94.34620000000007" height="88.80619999999993" overflow="visible">
      
<g id="Group 10056">
<g id="Group 10055">
<path id="Vector" d="M51.5597 46.4981L39.0013 46.8891V35.0107H51.5597V46.4981ZM39.0013 35.0107H32.9354V46.4981L39.0013 46.8891V35.0107ZM52.9666 31.998L39.0013 31.6071V35.0107H52.9666V31.998ZM39.0013 31.6071L31.5977 31.998V35.0107H39.0013V31.6071Z" fill="#FCFFF7"/>
<path id="Vector_2" d="M39.0014 47.5051C38.8515 47.5051 38.7131 47.4476 38.5978 47.3441C38.4825 47.2407 38.4248 47.0912 38.4248 46.9302V35.0518C38.4248 34.7299 38.6785 34.4769 39.0014 34.4769H51.5598C51.8827 34.4769 52.1364 34.7299 52.1364 35.0518V46.5392C52.1364 46.8497 51.8942 47.1027 51.5829 47.1142L39.0245 47.5051H39.0014ZM39.578 35.6268V46.3322L50.9832 45.9758V35.6153H39.578V35.6268Z" fill="#2A363B"/>
<path id="Vector_3" d="M39.0013 47.5051C39.0013 47.5051 38.9782 47.5051 38.9667 47.5051L32.9124 47.1142C32.6125 47.0912 32.3704 46.8382 32.3704 46.5392V35.0518C32.3704 34.7299 32.6241 34.4769 32.947 34.4769H39.0013C39.3242 34.4769 39.5779 34.7299 39.5779 35.0518V46.9302C39.5779 47.0912 39.5087 47.2407 39.3934 47.3441C39.2896 47.4476 39.1512 47.5051 39.0013 47.5051ZM33.512 46.0103L38.4131 46.3207V35.6268H33.512V45.9988V46.0103Z" fill="#2A363B"/>
<path id="Vector_4" d="M52.9667 35.6227H39.0014C38.6785 35.6227 38.4248 35.3697 38.4248 35.0477V31.6441C38.4248 31.4831 38.4825 31.3451 38.5978 31.2301C38.7131 31.1151 38.8745 31.0691 39.0129 31.0691L52.9783 31.4601C53.2896 31.4601 53.5433 31.7246 53.5433 32.035V35.0477C53.5433 35.3697 53.2896 35.6227 52.9667 35.6227ZM39.578 34.4728H52.3901V32.5985L39.578 32.242V34.4728Z" fill="#2A363B"/>
<path id="Vector_5" d="M39.0014 35.6227H31.5978C31.2749 35.6227 31.0212 35.3697 31.0212 35.0477V32.035C31.0212 31.7246 31.2634 31.4716 31.5632 31.4601L38.9668 31.0691C39.1283 31.0691 39.2782 31.1151 39.3935 31.2301C39.5088 31.3336 39.578 31.4946 39.578 31.6441V35.0477C39.578 35.3697 39.3243 35.6227 39.0014 35.6227ZM32.1744 34.4728H38.4248V32.2535L32.1744 32.587V34.4843V34.4728Z" fill="#2A363B"/>
</g>
<path id="Vector_6" d="M33.2584 40.0294L33.1316 39.9604C33.1316 39.9604 33.1201 39.9604 33.1085 39.9489L23.8483 35.6483C23.0295 35.2688 22.4068 34.5789 22.0954 33.7395C20.9883 30.6808 18.2322 23.172 16.9752 20.9412C16.8022 20.6307 16.5831 20.3548 16.3524 20.1133C16.3524 20.1133 16.3525 20.1018 16.3294 20.0903C15.2454 18.8944 14.5765 16.9051 17.4826 15.8817C19.5238 15.0423 20.9653 13.03 20.9653 10.6842C20.9653 7.57949 18.4398 5.06123 15.3261 5.06123C12.2124 5.06123 9.68692 7.57949 9.68692 10.6842C9.68692 11.6961 9.97523 12.6275 10.4365 13.4439H10.4019C11.6589 15.7322 10.8747 18.2275 10.079 19.2624C9.28331 20.2973 8.44147 21.4702 8.18777 21.9416C5.66225 26.6332 0 40.9378 0 45.5144L2.14496 88.1523C2.16803 88.5317 2.47939 88.8192 2.84842 88.8192H9.19105C9.42169 88.8192 9.5716 88.5547 9.58314 88.4052C9.6062 88.1063 9.62926 87.6923 9.65233 87.4738C9.67539 87.2553 9.56007 87.0599 9.36403 86.9449C9.16798 86.8299 9.08725 86.7954 8.82202 86.6459C8.55678 86.4964 8.47607 86.1744 8.51066 85.818C8.91429 80.7355 11.5436 48.0211 11.5436 48.0211L15.3146 35.1079C15.4414 34.6594 16.0526 34.6019 16.2717 35.0159L18.0823 38.4655C18.5089 39.282 19.247 39.8799 20.1234 40.1329L31.8054 43.525C31.9784 43.571 32.1514 43.6055 32.3474 43.6055C33.3968 43.6055 34.2502 42.7546 34.2502 41.7082C34.2502 40.9838 33.8351 40.3513 33.2354 40.0409L33.2584 40.0294Z" fill="#2A363B"/>
<path id="Vector_7" d="M61.0621 40.0294L61.1889 39.9604C61.1889 39.9604 61.2005 39.9604 61.212 39.9489L70.4722 35.6483C71.291 35.2688 71.9137 34.5789 72.2251 33.7395C73.3322 30.6808 76.0884 23.172 77.3453 20.9412C77.5183 20.6307 77.7374 20.3548 77.9681 20.1133C77.9681 20.1133 77.9681 20.1018 77.9911 20.0903C79.0752 18.8944 79.744 16.9051 76.8379 15.8817C74.7968 15.0423 73.3552 13.03 73.3552 10.6842C73.3552 7.57949 75.8808 5.06123 78.9944 5.06123C82.1081 5.06123 84.6336 7.57949 84.6336 10.6842C84.6336 11.6961 84.3453 12.6275 83.884 13.4439H83.9186C82.6616 15.7322 83.4458 18.2275 84.2415 19.2624C85.0372 20.2973 85.8791 21.4702 86.1328 21.9416C88.6583 26.6332 94.3205 40.9378 94.3205 45.5144L92.1756 88.1523C92.1525 88.5317 91.8411 88.8192 91.4721 88.8192H85.1295C84.8988 88.8192 84.7489 88.5547 84.7374 88.4052C84.7143 88.1063 84.6913 87.6923 84.6682 87.4738C84.6451 87.2553 84.7605 87.0599 84.9565 86.9449C85.1526 86.8299 85.2333 86.7954 85.4985 86.6459C85.7638 86.4964 85.8445 86.1744 85.8099 85.818C85.4062 80.7355 82.7769 48.0211 82.7769 48.0211L79.006 35.1079C78.8791 34.6594 78.2679 34.6019 78.0488 35.0159L76.2382 38.4655C75.8116 39.282 75.0735 39.8799 74.1971 40.1329L62.5151 43.525C62.3421 43.571 62.1692 43.6055 61.9731 43.6055C60.9237 43.6055 60.0703 42.7546 60.0703 41.7082C60.0703 40.9838 60.4855 40.3513 61.0851 40.0409L61.0621 40.0294Z" fill="#2A363B"/>
<path id="Vector_8" d="M71.4756 5.11984C71.3718 5.11984 71.268 5.09684 71.1758 5.02785L69.2038 3.79747C68.9385 3.62499 68.8463 3.28002 69.0193 3.00404C69.1923 2.73957 69.5497 2.65908 69.815 2.82006L71.787 4.05044C72.0522 4.22293 72.1445 4.56789 71.9715 4.84387C71.8677 5.01635 71.6716 5.11984 71.4871 5.11984H71.4756Z" fill="#2A363B"/>
<path id="Vector_9" d="M73.5514 3.36051C73.3323 3.36051 73.1132 3.23402 73.021 3.01554L72.0638 0.807756C71.937 0.520283 72.0638 0.175316 72.3636 0.0488286C72.6519 -0.0776593 72.9979 0.0488286 73.1248 0.3478L74.0819 2.55559C74.2088 2.84306 74.0819 3.18803 73.7821 3.31452C73.7129 3.34901 73.6322 3.36051 73.5514 3.36051Z" fill="#2A363B"/>
</g>

    </svg>
  </g>
  <g id="arrow-right">
    <svg x="332.123" y="201.26819999999998" viewBox="0 0 74.3791 63.6358" width="74.40219999999998" height="63.6546" overflow="visible">
      
<g id="Vector">
<path d="M71.9709 63.6128C71.9709 63.6128 71.8786 63.6128 71.844 63.6013L62.0302 61.313C61.7189 61.244 61.5228 60.9335 61.6036 60.6231C61.6727 60.3126 61.9841 60.1286 62.2954 60.1976L71.5211 62.3594L73.2394 53.3558C73.2971 53.0453 73.5969 52.8383 73.9082 52.8958C74.2196 52.9533 74.4272 53.2523 74.3695 53.5627L72.5359 63.1643C72.5013 63.3138 72.4206 63.4518 72.2822 63.5438C72.19 63.6013 72.0747 63.6358 71.9709 63.6358V63.6128Z" fill="#2A363B"/>
<path d="M71.9709 63.6128C71.7748 63.6128 71.5788 63.5093 71.475 63.3253C55.2609 35.5555 30.0057 13.4546 0.356788 1.10479C0.0684865 0.978306 -0.0814175 0.644828 0.0454351 0.357355C0.172288 0.0583838 0.50671 -0.0795903 0.795012 0.0468976C30.6746 12.4887 56.1258 34.7621 72.4667 62.7504C72.6282 63.0264 72.5359 63.3713 72.2592 63.5323C72.1669 63.5898 72.0631 63.6128 71.9709 63.6128Z" fill="#2A363B"/>
</g>

    </svg>
  </g>
  <g id="vegetables">
    <svg x="349.5186" y="395.4452" viewBox="0 0 63.7984 74.1688" width="63.820799999999984" height="74.18060000000001" overflow="visible">
      
<g id="Vector">
<path d="M10.2096 74.1573C10.2096 74.1573 10.1404 74.1573 10.1058 74.1573L0.476544 72.329C0.326627 72.2945 0.188258 72.214 0.0960013 72.076C0.0037448 71.938 -0.0193278 71.7885 0.0152684 71.6275L2.31014 61.842C2.37933 61.5315 2.67917 61.3475 3.00207 61.4165C3.31343 61.4855 3.50947 61.796 3.42875 62.1064L1.26075 71.3171L10.2903 73.0304C10.6017 73.0879 10.8093 73.3869 10.7516 73.6973C10.694 73.9733 10.4633 74.1688 10.1866 74.1688L10.2096 74.1573Z" fill="#2A363B"/>
<path d="M0.580351 72.3405C0.384306 72.3405 0.188269 72.237 0.0844806 72.053C-0.0769681 71.777 0.0152799 71.432 0.292049 71.2711C28.142 55.1036 50.3066 29.921 62.692 0.357385C62.8189 0.0584134 63.1533 -0.0795958 63.4416 0.046892C63.7299 0.17338 63.8798 0.506876 63.753 0.794348C51.2753 30.588 28.9377 55.966 0.868652 72.26C0.776396 72.3175 0.672607 72.3405 0.580351 72.3405Z" fill="#2A363B"/>
</g>

    </svg>
  </g>
  <g id="open-box">
    <svg x="144.20620000000002" y="412.8408" viewBox="0 0 74.3676 63.6106" width="74.40220000000005" height="63.59920000000001" overflow="visible">
      
<g id="Vector">
<path d="M0.574688 10.7502C0.574688 10.7502 0.5055 10.7502 0.470903 10.7502C0.159538 10.6927 -0.0480409 10.3937 0.00961943 10.0832L1.84321 0.481662C1.87781 0.332176 1.95853 0.194205 2.09692 0.102214C2.22377 0.0102226 2.38522 -0.0127837 2.54667 0.021713L12.3604 2.30998C12.6718 2.37898 12.8679 2.68945 12.7871 2.99992C12.7179 3.31039 12.4181 3.50587 12.0952 3.42538L2.86956 1.26358L1.15129 10.2672C1.09363 10.5432 0.862992 10.7387 0.586222 10.7387L0.574688 10.7502Z" fill="#2A363B"/>
<path d="M73.7917 63.6106C73.7225 63.6106 73.6418 63.5991 73.5726 63.5646C43.693 51.1228 18.2418 28.8495 1.90087 0.861159C1.73942 0.585186 1.83168 0.240192 2.10845 0.0792077C2.38522 -0.0817769 2.73118 0.010241 2.89263 0.286215C19.1067 28.056 44.3619 50.1569 74.0108 62.5067C74.2991 62.6332 74.4491 62.9667 74.3222 63.2541C74.2299 63.4726 74.0108 63.6106 73.7917 63.6106Z" fill="#2A363B"/>
</g>

    </svg>
  </g>
  <g id="arrow-up">
    <svg x="137.392" y="208.08240000000004" viewBox="0 0 63.8099 74.1545" width="63.820799999999984" height="74.18059999999998" overflow="visible">
      
<g id="Vector">
<path d="M60.9116 12.7619C60.9116 12.7619 60.8194 12.7619 60.7848 12.7504C60.4734 12.6814 60.2774 12.3709 60.3581 12.0604L62.5261 2.84982L53.4965 1.13648C53.1851 1.07898 52.9776 0.780011 53.0352 0.469541C53.0929 0.159071 53.3927 -0.0479024 53.7041 0.00959208L63.3334 1.83791C63.4833 1.87241 63.6217 1.9529 63.7139 2.09089C63.8062 2.22888 63.8292 2.37836 63.7947 2.53935L61.4998 12.3249C61.4421 12.5894 61.1999 12.7734 60.9347 12.7734L60.9116 12.7619Z" fill="#2A363B"/>
<path d="M0.575907 74.1545C0.506715 74.1545 0.425988 74.143 0.356795 74.1085C0.068494 73.982 -0.0814189 73.6485 0.0454338 73.3611C12.5231 43.5674 34.8607 18.1894 62.9297 1.89543C63.2065 1.73444 63.5525 1.82643 63.7139 2.1024C63.8754 2.37837 63.7831 2.72335 63.5063 2.88433C35.6564 19.0518 13.4918 44.2344 1.10638 73.798C1.01412 74.0165 0.795016 74.1545 0.575907 74.1545Z" fill="#2A363B"/>
</g>

    </svg>
  </g>
  <g id="arrow-small" transform="translate(152.01760000000002, 95.011) rotate(-44.95, 14.210099999999972, 14.182400000000007)">
    <svg viewBox="0 0 15.4275 24.7219" width="28.420199999999944" height="28.364800000000013" overflow="visible">
      
<g id="Vector">
<path d="M7.70799 24.7219C7.38539 24.7219 7.13191 24.4687 7.13191 24.1465V0.575464C7.13191 0.253204 7.38539 0 7.70799 0C8.0306 0 8.28408 0.253204 8.28408 0.575464V24.1465C8.28408 24.4687 8.0306 24.7219 7.70799 24.7219Z" fill="#2A363B"/>
<path d="M7.70799 24.7219C7.55821 24.7219 7.40844 24.6644 7.30474 24.5493L0.172825 17.425C-0.0576084 17.1949 -0.0576084 16.8381 0.172825 16.6079C0.403259 16.3777 0.760438 16.3777 0.990872 16.6079L7.71952 23.3293L14.4367 16.6079C14.6671 16.3777 15.0243 16.3777 15.2547 16.6079C15.4851 16.8381 15.4851 17.1949 15.2547 17.425L8.12277 24.5493C8.01908 24.6529 7.86931 24.7219 7.71952 24.7219L7.70799 24.7219Z" fill="#2A363B"/>
</g>

    </svg>
  </g>
  <g id="watering-can">
    <svg x="357.9948" y="290.07439999999997" viewBox="0 0 116.713 89.7798" width="116.67240000000001" height="89.74800000000002" overflow="visible">
      
<g id="Group">
<path id="Vector" d="M32.4254 25.1913C32.4254 25.1913 32.4369 25.1338 32.4254 25.0993C32.4254 25.0303 32.3908 24.9613 32.3562 24.9038V24.8808L25.2178 12.8529C25.1717 12.7725 25.1025 12.7035 25.0218 12.6575L12.5095 5.09119C12.5095 5.09119 12.4864 5.09119 12.4749 5.09119C12.4172 5.05669 12.3596 5.0337 12.2904 5.0222C12.2558 5.0222 12.2327 5.0222 12.1981 5.0222C12.1635 5.0222 12.1405 5.0222 12.1059 5.0222C12.0021 5.04519 11.9098 5.07969 11.8291 5.16018C11.8291 5.16018 11.8291 5.16018 11.8176 5.16018L0.170213 16.7741C-0.00276808 16.9466 -0.0489033 17.1995 0.0548852 17.418L5.85551 29.8943C5.85551 29.8943 5.87857 29.9173 5.8901 29.9403C5.91317 29.9863 5.94775 30.0208 5.98234 30.0553C6.01694 30.0898 6.04002 30.1128 6.07462 30.1358C6.08615 30.1358 6.09769 30.1588 6.12076 30.1703L19.9707 37.2881C20.0515 37.3341 20.1437 37.3571 20.236 37.3571C20.3859 37.3571 20.5358 37.2996 20.6396 37.1846L32.287 25.5707C32.3677 25.4902 32.4138 25.3868 32.4369 25.2718C32.4369 25.2488 32.4369 25.2143 32.4369 25.1913H32.4254ZM30.1651 23.4319L19.3249 16.7281L13.8242 7.20701L24.2953 13.5429L30.1651 23.4319ZM12.0828 6.49405L17.6182 16.0611L18.1833 17.0501L6.54744 28.6525L1.26574 17.2915L12.0944 6.49405H12.0828ZM20.1091 36.0692L7.33161 29.5034L18.9905 17.878L30.9377 25.2718L20.1091 36.0692Z" fill="#2A363B"/>
<path id="Vector_2" d="M43.9459 22.9696L43.0464 25.3154C43.0464 25.3154 43.0464 25.3154 43.0464 25.3269C43.0233 25.3844 42.9657 25.4304 42.9195 25.4764C42.885 25.5109 42.8734 25.5569 42.8273 25.5799C42.735 25.6374 42.6197 25.6833 42.5044 25.6833C42.5044 25.6833 42.5044 25.6833 42.4928 25.6833C42.4236 25.6833 42.3545 25.6719 42.2853 25.6374L39.8981 24.614C39.6098 24.4875 39.4715 24.154 39.5983 23.855C39.7252 23.5676 40.0596 23.4296 40.3594 23.556L41.4665 24.0275C39.9443 20.5433 37.7878 18.7955 34.4204 18.3011C34.109 18.2551 33.8899 17.9676 33.9361 17.6456C33.9822 17.3352 34.282 17.1167 34.5934 17.1627C38.3413 17.7146 40.8322 19.6924 42.5274 23.5215L42.8965 22.5556C43.0118 22.2567 43.3462 22.1072 43.646 22.2222C43.9459 22.3372 44.0958 22.6707 43.9805 22.9696H43.9459Z" fill="#2A363B"/>
<path id="Vector_3" d="M57.4153 36.7586C56.9771 37.069 56.043 37.506 54.6707 37.3335C53.2983 37.161 51.6031 35.9077 50.3923 33.7229C49.4351 31.9865 48.4318 30.9401 47.1633 30.8711C46.9673 30.8711 46.7943 30.7217 46.702 30.5492C46.702 30.5492 46.4368 30.0202 46.4022 29.9512C46.3676 29.8822 46.2292 29.8017 46.0216 29.8937C45.814 29.9742 45.7564 30.1007 45.791 30.2042C45.8256 30.2962 46.0332 30.8021 46.0332 30.8021C46.1023 30.9861 46.0908 31.2046 45.964 31.3656C45.1683 32.366 45.2951 33.7919 45.964 35.6662C46.8058 38.0235 46.6213 40.1047 45.8371 41.2431C45.0645 42.3815 44.1073 42.784 43.5884 42.9105C43.0579 43.037 43.4038 43.7154 44.1534 44.0029C44.903 44.3019 46.4714 44.2213 47.7976 42.899C49.1237 41.5766 48.674 40.0932 48.674 40.0932C48.9046 40.8292 50.0348 43.014 51.2918 42.347C52.618 41.8411 51.4647 38.7364 51.4647 38.7364C51.9952 39.2998 52.7448 40.0013 54.613 39.8863C56.4812 39.7713 57.5883 38.6444 57.8535 37.8969C58.1303 37.1495 57.8535 36.4366 57.4038 36.7471L57.4153 36.7586ZM49.2045 37.253C49.2045 37.253 49.1238 37.276 49.0776 37.276C48.9738 37.276 48.8816 37.2185 48.8239 37.1265C48.7201 36.9196 48.5933 36.6781 48.4664 36.4251C47.8322 35.1947 46.9788 33.5274 46.8519 32.4925C46.8289 32.343 46.9442 32.205 47.0941 32.182C47.2556 32.159 47.3824 32.274 47.4055 32.4235C47.5208 33.3549 48.3511 34.9877 48.9623 36.1721C49.0892 36.4251 49.216 36.6666 49.3198 36.8736C49.389 37.0116 49.3313 37.1725 49.1929 37.2415L49.2045 37.253Z" fill="#2A363B"/>
<path id="Vector_4" d="M68.2555 38.297C68.3939 39.2399 68.1402 40.3668 67.16 41.2753C67.0562 41.3672 66.8947 41.3098 66.8717 41.1718C66.8025 40.8728 66.6872 40.6198 66.5372 40.3898C66.5026 40.3324 66.5026 40.2634 66.5372 40.2059C66.9293 39.5734 66.9178 38.9985 66.8601 38.4465C66.7564 37.3081 68.0941 37.2276 68.2555 38.297ZM60.1254 51.0378C60.1254 51.0378 60.1254 51.2218 60.0447 51.2218C58.3841 51.3943 56.6427 50.9918 56.2276 48.7495C56.2045 48.646 56.1353 48.5541 56.0431 48.5081C53.2984 47.1397 54.5785 44.5525 55.5472 43.2761C56.539 41.9767 58.3149 39.9759 60.2292 38.7455C62.0628 37.5611 63.5505 38.1016 64.0233 39.3089C64.0579 39.4009 64.1386 39.4699 64.2308 39.5044C65.361 39.8034 66.4796 40.6773 66.4565 42.4022C66.4565 42.5056 66.5027 42.6091 66.5949 42.6666C67.7943 43.4716 68.5438 44.9434 68.1171 46.3233C68.1056 46.3808 68.0133 46.3693 67.9788 46.3233C67.3099 45.3919 66.0068 45.1734 65.0727 45.8403C64.8766 45.9783 64.7267 46.1508 64.5883 46.3233C64.5422 46.3808 64.5076 46.3808 64.473 46.3578C64.3115 46.2543 64.1501 46.1738 63.9887 46.1048C63.9195 46.0703 63.9195 46.0013 63.9541 45.9783C64.7844 45.3574 65.3956 44.7364 65.557 44.242C65.6147 44.081 65.5224 43.9085 65.3725 43.851C65.211 43.7935 65.0381 43.8855 64.9804 44.035C64.8305 44.4605 64.1963 45.0699 63.3083 45.6908C63.1699 45.7828 63.0085 45.8173 62.847 45.8173C62.1436 45.7713 61.417 45.9553 60.7828 46.4038C60.3215 46.7373 59.9755 47.1742 59.7449 47.6572C59.6411 47.8756 59.5373 48.1516 59.4912 48.4046C59.3182 49.2555 59.4912 50.1639 60.0216 50.9228C60.0447 50.9573 60.0793 50.9918 60.1024 51.0263L60.1254 51.0378ZM59.445 44.265C60.0101 43.2301 62.2243 41.4592 62.9738 41.2178C63.1353 41.1718 63.216 40.9993 63.1699 40.8383C63.1122 40.6773 62.9508 40.5968 62.7893 40.6428C61.8437 40.9533 59.5258 42.8621 58.9146 43.9775C58.8569 44.081 58.8684 44.2075 58.9376 44.2995C58.9607 44.334 58.9953 44.3685 59.0414 44.3915C59.1913 44.472 59.3759 44.4145 59.4566 44.265H59.445Z" fill="#2A363B"/>
<path id="Vector_5" d="M116.713 9.74749C116.713 9.69 116.713 9.63251 116.69 9.57502C116.69 9.54052 116.69 9.506 116.679 9.48301L114.464 4.32001C114.384 4.12453 114.211 3.99802 114.003 3.97502L80.3065 0.00792569C80.1104 -0.026571 79.9259 0.0539016 79.7991 0.203387C79.6722 0.352873 79.6261 0.548379 79.6837 0.732362L80.9754 5.23991L62.7893 36.241L28.493 43.1633H28.4814C28.4007 43.1863 28.3315 43.2208 28.2738 43.2553C28.2738 43.2553 28.2623 43.2553 28.2508 43.2553C28.2508 43.2553 28.2392 43.2783 28.2277 43.2783C28.1816 43.3243 28.1355 43.3703 28.1009 43.4278C28.1009 43.4393 28.0778 43.4622 28.0663 43.4737C28.0317 43.5427 28.0086 43.6117 28.0086 43.6807C28.0086 43.6807 28.0086 43.6807 28.0086 43.6922C28.0086 43.6922 28.0086 43.6922 28.0086 43.7037V76.8895C28.0086 77.131 28.1585 77.338 28.3776 77.43L60.333 89.7453C60.4021 89.7683 60.4714 89.7798 60.5406 89.7798C60.5982 89.7798 60.6674 89.7798 60.725 89.7453L97.8813 77.43C98.1235 77.3495 98.2734 77.131 98.2734 76.8895V43.8532L116.644 9.95446C116.644 9.95446 116.667 9.87396 116.679 9.83947C116.69 9.80497 116.702 9.75897 116.713 9.72447V9.74749ZM113.542 5.07894L115.226 9.01155L102.875 7.44771L82.0363 4.80295L81.0215 1.24979L113.53 5.06743L113.542 5.07894ZM95.1598 43.8072L63.7234 52.0289V37.4598L95.1598 43.8072ZM62.5817 52.3394L60.5752 52.8684L30.9493 43.8532L62.5817 37.4713V52.3394ZM29.1733 44.5201L46.7828 49.8786L59.987 53.8917V88.3999L29.1849 76.5331V44.5201H29.1733ZM97.1433 76.5101L61.1402 88.4459V53.9033L97.1433 44.4857V76.5101ZM97.4085 43.0943L64.0578 36.3674L81.8979 5.95284L115.249 10.1845L97.4201 43.1058L97.4085 43.0943ZM35.6544 67.3455L35.6774 59.8137L43.3578 59.8367V67.3685L35.6659 67.357L35.6544 67.3455ZM36.4962 66.598H42.4929L42.5044 60.5726H36.5077L36.4962 66.598ZM37.7186 65.2987V61.872H41.2705V65.2987H37.7186ZM38.5604 64.5512H40.4286V62.6194H38.5604V64.5512ZM47.5554 71.3471V68.7828C47.3363 68.8633 47.0942 68.9438 46.8059 69.0358C46.5291 69.1278 46.2523 69.2083 45.9756 69.3003C45.6988 69.3808 45.4566 69.4498 45.2375 69.5073L45.0069 68.6793C45.0876 68.6563 45.1914 68.6333 45.3067 68.6104C45.422 68.5759 45.5489 68.5529 45.6873 68.5069V64.1718H46.4945V68.2884C46.679 68.2309 46.8751 68.1619 47.0596 68.1044C47.2441 68.0469 47.4171 67.9894 47.567 67.9434V63.0219H48.3858L48.3627 71.3471H47.5554ZM48.9854 71.2206C48.9278 71.1401 48.8355 71.0251 48.7202 70.8871C48.6049 70.7491 48.5126 70.6572 48.4204 70.5882C48.8701 70.3352 49.2737 70.0362 49.6427 69.7027C50.0118 69.3693 50.3462 69.0013 50.646 68.5873C50.2885 68.0124 50.0118 67.403 49.8042 66.736C49.5966 66.0691 49.4698 65.3562 49.4236 64.5857H48.7548V63.8153H53.1139C53.0332 64.7582 52.8717 65.6321 52.618 66.4141C52.3643 67.2075 52.0299 67.9204 51.6263 68.5759C52.2029 69.3693 52.9178 70.0132 53.7482 70.5077C53.6905 70.5537 53.6213 70.6111 53.5406 70.7031C53.4599 70.7836 53.3791 70.8756 53.3099 70.9676C53.2407 71.0596 53.1831 71.1401 53.137 71.1976C52.7449 70.9216 52.3758 70.6227 52.0414 70.3007C51.707 69.9787 51.3956 69.6452 51.1188 69.2888C50.819 69.6797 50.4846 70.0247 50.1271 70.3467C49.7696 70.6686 49.389 70.9561 48.9854 71.2091V71.2206ZM51.1419 67.8169C51.4187 67.3225 51.6493 66.805 51.8223 66.2646C51.9953 65.7241 52.1221 65.1607 52.2029 64.5857H50.2309C50.254 65.1607 50.3462 65.7241 50.5077 66.2646C50.6691 66.805 50.8767 67.3225 51.1534 67.8054L51.1419 67.8169ZM70.8963 70.8181L70.8502 64.3787H73.4103C73.9869 64.3557 74.4251 64.4937 74.7596 64.7697C75.0825 65.0457 75.2439 65.4481 75.2554 65.9771C75.2554 66.3336 75.1747 66.644 75.0133 66.8855C74.8518 67.127 74.6327 67.2995 74.3559 67.4029C74.7019 67.4834 74.9902 67.6674 75.2208 67.9664C75.4515 68.2654 75.5668 68.6334 75.5668 69.0473C75.5668 69.6223 75.4054 70.0592 75.0594 70.3467C74.7135 70.6341 74.2291 70.7836 73.5718 70.7951L70.8963 70.8181ZM71.7151 67.0925H73.3411C73.664 67.081 73.9177 66.989 74.0907 66.805C74.2637 66.621 74.3444 66.3911 74.3444 66.0921C74.3444 65.4596 73.9869 65.1377 73.2719 65.1377H71.7036L71.7151 67.081V67.0925ZM71.7382 70.0247H73.468C73.8831 70.0132 74.1945 69.9212 74.379 69.7487C74.5635 69.5762 74.6673 69.3118 74.6558 68.9553C74.6558 68.6103 74.5404 68.3459 74.3098 68.1619C74.0792 67.9779 73.7909 67.8859 73.4449 67.8859H71.7151L71.7266 70.0247H71.7382ZM80.1796 68.9208C79.5915 68.9208 79.0841 68.7943 78.6228 68.5183C78.1731 68.2424 77.8156 67.8629 77.5618 67.357C77.2966 66.851 77.1698 66.2646 77.1698 65.5861C77.1698 64.9077 77.2851 64.3097 77.5388 63.8038C77.7925 63.2978 78.1385 62.8954 78.5882 62.6194C79.038 62.3319 79.5569 62.1939 80.1335 62.1939C80.7101 62.1939 81.2291 62.3205 81.6788 62.6079C82.1286 62.8839 82.4745 63.2748 82.7398 63.7808C82.9935 64.2868 83.1319 64.8732 83.1319 65.5631C83.1319 66.2416 83.0165 66.8395 82.7628 67.3455C82.5091 67.8514 82.1631 68.2424 81.7134 68.5183C81.2636 68.7943 80.7562 68.9438 80.1681 68.9438L80.1796 68.9208ZM80.1796 68.0929C80.5948 68.0929 80.9638 67.9779 81.2752 67.7709C81.5865 67.5639 81.8287 67.265 82.0017 66.8855C82.1747 66.5061 82.2554 66.0576 82.2554 65.5401C82.2554 65.0227 82.1632 64.5742 81.9786 64.1948C81.8057 63.8153 81.5519 63.5278 81.229 63.3209C80.9061 63.1139 80.5371 63.0104 80.122 63.0104C79.7068 63.0104 79.3378 63.1254 79.0264 63.3324C78.7151 63.5393 78.4614 63.8383 78.2884 64.2178C78.1154 64.5972 78.0231 65.0457 78.0347 65.5631C78.0347 66.0806 78.1269 66.529 78.3114 66.897C78.4959 67.2765 78.7381 67.5639 79.061 67.7709C79.3839 67.9779 79.7414 68.0814 80.1681 68.0814L80.1796 68.0929ZM84.6195 66.713L86.7414 63.3209L84.7463 60.2737H85.7496L87.1911 62.5619L88.598 60.2506H89.6013L87.6524 63.3209L89.8204 66.6785H88.8056L87.1911 64.0913L85.5997 66.7015H84.5964L84.6195 66.713Z" fill="#2A363B"/>
</g>

    </svg>
  </g>
  <g id="compost-box">
    <svg x="211.8496" y="140.32819999999998" viewBox="0 0 108.525 83.8024" width="108.52859999999995" height="83.76480000000006" overflow="visible">
      
<g id="Group">
<path id="Vector" d="M108.486 24.0787C108.486 24.0787 108.486 24.0442 108.486 24.0212C108.486 23.9637 108.462 23.9062 108.439 23.8602C108.439 23.8487 108.439 23.8372 108.439 23.8257C108.439 23.8142 108.416 23.8027 108.416 23.7912C108.382 23.7452 108.347 23.7107 108.313 23.6762C108.289 23.6647 108.278 23.6417 108.255 23.6302C108.255 23.6302 108.243 23.6187 108.232 23.6072L78.5483 6.92234C78.5483 6.92234 78.4445 6.87634 78.3868 6.86484L45.0131 0C45.0131 0 44.99 0 44.9785 0C44.9554 0 44.9324 0 44.9093 0C44.8516 0 44.794 4.91337e-06 44.7363 0.0230027C44.7363 0.0230027 44.7132 0.0230027 44.7017 0.0230027C44.7017 0.0230027 44.6902 0.0344953 44.6787 0.0344953C44.621 0.0574931 44.5633 0.0919919 44.5172 0.126489C44.5057 0.126489 44.4941 0.149485 44.4826 0.160984C44.4249 0.218478 44.3788 0.275977 44.3557 0.34497L41.6918 7.45128C41.5996 7.69276 41.6918 7.96873 41.8994 8.11822L70.3144 28.2068C70.3836 28.2528 70.4758 28.2873 70.5566 28.3103L104.749 32.9903C104.749 32.9903 104.807 32.9903 104.83 32.9903C105.072 32.9903 105.28 32.8408 105.372 32.6224L108.497 24.3087C108.52 24.2397 108.532 24.1592 108.52 24.0902L108.486 24.0787ZM78.0294 7.96874L104.818 23.0208L74.2238 18.0878L57.7791 7.88824L47.9076 1.77082L78.0294 7.96874ZM45.1399 1.42587L73.3012 18.8927L70.3144 26.8614L42.8796 7.46279L45.1399 1.43736V1.42587ZM104.415 31.7944L71.3869 27.2754L74.3852 19.2837L78.8943 20.0081L107.136 24.5616L104.426 31.7944H104.415Z" fill="#2A363B"/>
<path id="Vector_2" d="M71.4445 44.4803L64.2254 46.1707C63.4067 43.8479 62.4264 41.9851 61.4347 41.2836C61.1464 41.0766 60.7312 41.1456 60.5236 41.4331C60.3161 41.7206 60.3853 42.1346 60.6736 42.3415C61.4231 42.882 62.2419 44.4343 62.9569 46.4696L62.7032 46.5271L47.8384 42.537C48.4726 41.9391 49.2799 41.5711 50.1679 41.4561C50.4792 41.4216 50.7675 41.2606 50.929 40.9847C52.2206 38.9379 54.6308 37.305 57.9981 38.2709C58.3095 38.3629 58.6439 38.2939 58.8976 38.0984C61.6999 35.8677 65.9322 35.4307 68.5154 38.3974C69.7262 39.8003 70.718 42.0311 71.433 44.4688L71.4445 44.4803ZM50.2716 35.0972C51.4479 35.3272 52.6242 35.6492 53.6851 36.8221C53.7889 36.9371 53.9388 36.9831 54.0888 36.9486C54.6308 36.7991 55.2189 36.7186 55.8416 36.7416C56.153 36.7416 56.3952 36.4426 56.2568 36.1666C54.9767 33.6254 52.8318 32.4295 50.8137 32.1535C48.5303 31.843 47.873 34.6373 50.2832 35.1087L50.2716 35.0972Z" fill="#2A363B"/>
<path id="Vector_3" d="M32.9044 17.7864C31.8665 18.5108 29.687 19.5457 26.481 19.1318C23.2636 18.7178 19.3197 15.8086 16.4943 10.7031C14.2456 6.63245 11.9161 4.2062 8.9408 4.04521C8.46799 4.02221 8.06436 3.71174 7.85678 3.28628C7.85678 3.28628 7.23405 2.0444 7.15333 1.88341C7.0726 1.72243 6.74971 1.53845 6.2769 1.74543C5.80408 1.95241 5.65416 2.23988 5.74642 2.45836C5.83867 2.67684 6.29995 3.83822 6.29995 3.83822C6.47293 4.27518 6.43835 4.78113 6.15005 5.14909C4.30492 7.48337 4.58169 10.8296 6.15005 15.1991C8.12203 20.6956 7.68381 25.5711 5.86174 28.2504C4.03968 30.9296 1.82552 31.861 0.591585 32.16C-0.642345 32.459 0.176442 34.0343 1.91778 34.7243C3.65912 35.4142 7.33785 35.2417 10.44 32.1485C13.5421 29.0553 12.4927 25.5941 12.4927 25.5941C13.0347 27.319 15.664 32.413 18.6047 30.8721C21.7183 29.6992 19.0198 22.4434 19.0198 22.4434C20.2538 23.7543 22.0066 25.3987 26.3773 25.1342C30.7594 24.8697 33.3196 22.2365 33.9538 20.4886C34.5881 18.7293 33.9423 17.0734 32.9044 17.7979V17.7864ZM13.692 18.9363C13.5997 18.9823 13.496 19.0053 13.4037 19.0053C13.1615 19.0053 12.9309 18.8673 12.8156 18.6488C12.5734 18.1659 12.2851 17.6024 11.9853 17.016C10.5207 14.1527 8.50258 10.2316 8.20275 7.81685C8.15662 7.46038 8.41033 7.13841 8.76783 7.09241C9.13685 7.04642 9.44821 7.2994 9.49434 7.65586C9.75957 9.84065 11.7085 13.6468 13.1385 16.4295C13.4498 17.0275 13.7381 17.5909 13.9803 18.0854C14.1418 18.4073 14.0034 18.7983 13.6805 18.9593L13.692 18.9363Z" fill="#2A363B"/>
<path id="Vector_4" d="M49.2914 25.0128L48.3919 27.3585C48.3919 27.3585 48.3919 27.3586 48.3919 27.3701C48.3688 27.4276 48.3112 27.4736 48.2651 27.5196C48.2305 27.554 48.2189 27.6 48.1728 27.623C48.0805 27.6805 47.9652 27.7265 47.8499 27.7265C47.8499 27.7265 47.8499 27.7265 47.8384 27.7265C47.7692 27.7265 47.7 27.715 47.6308 27.6805L45.2436 26.6571C44.9553 26.5306 44.817 26.1972 44.9438 25.8982C45.0707 25.6107 45.4051 25.4727 45.7049 25.5992L46.8005 26.0707C45.2783 22.5865 43.1102 20.8387 39.7544 20.3442C39.443 20.2982 39.2239 20.0108 39.2701 19.6888C39.3162 19.3783 39.616 19.1598 39.9274 19.2058C43.6753 19.7578 46.1662 21.7471 47.8614 25.5647L48.2304 24.5988C48.3458 24.2999 48.6802 24.1504 48.98 24.2654C49.2799 24.3804 49.4298 24.7138 49.3145 25.0128H49.2914Z" fill="#2A363B"/>
<path id="Vector_5" d="M93.8743 39.6581C93.8743 39.5891 93.8513 39.5201 93.8282 39.4511C93.8282 39.4281 93.8051 39.4166 93.7936 39.3936C93.759 39.3476 93.7244 39.3016 93.6783 39.2556C93.6783 39.2556 93.6668 39.2326 93.6552 39.2211C93.6552 39.2211 93.6437 39.2211 93.6322 39.2211C93.5745 39.1752 93.5053 39.1407 93.4361 39.1177L65.4593 31.9653C65.4593 31.9653 65.4247 31.9653 65.4017 31.9653C65.3671 31.9653 65.344 31.9423 65.3094 31.9423C65.2748 31.9423 65.2518 31.9538 65.2287 31.9538C65.2056 31.9538 65.1941 31.9538 65.171 31.9538L35.8912 39.1062C35.822 39.1291 35.7528 39.1636 35.6951 39.1981C35.6951 39.1981 35.6836 39.1981 35.672 39.1981C35.672 39.1981 35.6605 39.2211 35.649 39.2326C35.6029 39.2786 35.5683 39.3246 35.5337 39.3706C35.5337 39.3936 35.5106 39.4051 35.4991 39.4281C35.4645 39.4971 35.4414 39.5661 35.4414 39.6466V73.4764C35.4414 73.7178 35.5913 73.9363 35.822 74.0168L62.4956 83.7679C62.5648 83.7909 62.6225 83.8024 62.6917 83.8024C62.7493 83.8024 62.807 83.8024 62.8646 83.7794L93.4477 74.0283C93.6898 73.9478 93.8513 73.7293 93.8513 73.4764V39.6466C93.8513 39.6466 93.8513 39.6466 93.8513 39.6351L93.8743 39.6581ZM64.7444 33.2532V38.1288C64.7444 38.4507 64.9981 38.7037 65.321 38.7037C65.6439 38.7037 65.8976 38.4507 65.8976 38.1288V33.2647L90.876 39.6466L62.7263 46.2355L38.359 39.7041L64.7444 33.2532ZM36.6177 40.417L48.0114 43.4757L62.1381 47.2589V82.411L36.6177 73.0854V40.417ZM63.2913 82.4455V47.2704L85.6981 42.0269L92.7211 40.3825V73.0624L63.2913 82.4455Z" fill="#2A363B"/>
</g>

    </svg>
  </g>
  <g id="label-distribute" font-family="'Zen Kaku Gothic New', sans-serif" font-size="12" fill="#2A363B">
    <text x="0" y="120.80560000000001">アイ企画のお客様に</text>
    <text x="0" y="142.40560000000002">コンポストを配布</text>
  </g>
  <g id="label-collect" font-family="'Zen Kaku Gothic New', sans-serif" font-size="12" fill="#2A363B" text-anchor="middle">
    <text x="275.0056" y="248.66879999999998">ご自宅でコンポストに</text>
    <text x="275.0056" y="270.2688">生ゴミなどを収集</text>
  </g>
  <g id="label-fertilizer" font-family="'Zen Kaku Gothic New', sans-serif" font-size="12" fill="#2A363B" text-anchor="middle">
    <text x="385.9995" y="518.09">回収された生ゴミから</text>
    <text x="385.9995" y="539.69">肥料を作り農作業に利用</text>
  </g>
  <g id="label-collection-box" font-family="'Zen Kaku Gothic New', sans-serif" font-size="12" fill="#2A363B" text-anchor="middle">
    <text x="506" y="392">乾燥した生ゴミを</text>
    <text x="506" y="413.6">回収BOXに投函</text>
  </g>
  <g id="label-harvest" font-family="'Zen Kaku Gothic New', sans-serif" font-size="12" fill="#2A363B">
    <text x="0" y="373.396">収穫した農作物を</text>
    <text x="0" y="394.99600000000004">お客さんに還元</text>
  </g>

</svg>