<svg preserveAspectRatio="xMidYMid meet" width="32" height="32" overflow="visible" style="display: block;" viewBox="0 0 32 32" fill="none" xmlns="http://www.w3.org/2000/svg">
<g id="favicon">
<rect width="32" height="32" fill="#FCFFF7"/>
<g id="Vector">
<path d="M27.7418 7H4.2582C4.12295 7 4 7.11061 4 7.2458V9.5194C4 9.65459 4.11065 9.7652 4.2582 9.7652H24.2992L21.3975 14.8532C21.3484 14.9269 21.3484 15.0252 21.3975 15.099C21.4467 15.1727 21.5205 15.2219 21.6189 15.2219H23.8074C23.8811 15.2219 23.9672 15.185 24.0041 15.1235L27.9508 9.75291C27.9508 9.75291 28 9.65459 28 9.60543V7.2458C28 7.11061 27.8893 7 27.7418 7Z" fill="#2A363B"/>
<path d="M14.0943 11.5349C14.1926 16.8195 12.2623 20.7768 8.02049 24.0213C7.95901 24.0705 7.92213 24.132 7.92213 24.2057C7.92213 24.2794 7.94672 24.3532 7.9959 24.4023L9.61885 25.9263C9.61885 25.9263 9.72951 26 9.79099 26C9.84017 26 9.90164 25.9754 9.93852 25.9508C14.6967 22.3499 16.8238 17.901 16.8484 11.5349V11.4612H14.082V11.5349H14.0943Z" fill="#2A363B"/>
</g>
</g>
</svg>
