<svg preserveAspectRatio="xMidYMid meet" width="232" height="38" overflow="visible" style="display: block;" viewBox="0 0 200 33.1259" fill="none" xmlns="http://www.w3.org/2000/svg">
<g id="Vector">
<path d="M199.824 4.13276H165.023C164.943 4.13276 164.864 4.19659 164.864 4.29233V7.06877C164.864 7.14856 164.927 7.22834 165.023 7.22834H180.74C180.82 7.22834 180.9 7.29217 180.9 7.38791V11.026C180.9 11.1058 180.836 11.1856 180.74 11.1856H173.863C173.783 11.1856 173.704 11.2494 173.704 11.3451V24.8604C173.704 24.9402 173.767 25.0199 173.863 25.0199H191.144V11.3132C191.144 11.2334 191.08 11.1537 191 11.1537H184.123C184.043 11.1537 183.964 11.0898 183.964 10.9941V7.35599C183.964 7.27621 184.027 7.19643 184.123 7.19643H199.84C199.92 7.19643 200 7.1326 200 7.03686V4.26041C200 4.18063 199.936 4.10085 199.84 4.10085M180.884 22.6743C180.884 22.7541 180.82 22.8339 180.724 22.8339H176.927C176.847 22.8339 176.767 22.7701 176.767 22.6743V19.3075C176.767 19.2277 176.831 19.1479 176.927 19.1479H180.724C180.804 19.1479 180.884 19.2117 180.884 19.3075V22.6743ZM180.884 16.8342C180.884 16.914 180.82 16.9938 180.724 16.9938H176.927C176.847 16.9938 176.767 16.93 176.767 16.8342V13.9142C176.767 13.8344 176.831 13.7546 176.927 13.7546H180.724C180.804 13.7546 180.884 13.8184 180.884 13.9142V16.8342ZM188.064 22.6743C188.064 22.7541 188.001 22.8339 187.905 22.8339H184.107C184.027 22.8339 183.948 22.7701 183.948 22.6743V19.3075C183.948 19.2277 184.011 19.1479 184.107 19.1479H187.905C187.985 19.1479 188.064 19.2117 188.064 19.3075V22.6743ZM184.123 13.7705H187.921C188.001 13.7705 188.08 13.8344 188.08 13.9301V16.8502C188.08 16.93 188.017 17.0097 187.921 17.0097H184.123C184.043 17.0097 183.964 16.9459 183.964 16.8502V13.9301C183.964 13.8503 184.027 13.7705 184.123 13.7705Z" fill="#2A363B"/>
<path d="M193.649 27.6049C193.649 27.6847 193.585 27.7645 193.49 27.7645H171.342C171.262 27.7645 171.182 27.7007 171.182 27.6049V11.1537H168.103V30.6845C168.103 30.7643 168.167 30.8441 168.262 30.8441H196.569C196.649 30.8441 196.729 30.7803 196.729 30.6845V11.1537H193.649V27.6049Z" fill="#2A363B"/>
<path d="M112.781 4.94655H108.122C108.122 4.94655 107.994 4.9625 107.93 5.01037C99.8245 10.7547 96.2821 12.4461 85.1125 14.3131C85.0008 14.329 84.9051 14.4088 84.8572 14.5205C84.8093 14.6322 84.8253 14.7439 84.8891 14.8396L86.8039 17.4246C86.8039 17.4246 86.9635 17.5523 87.1071 17.5523H87.123C90.793 16.914 94.7184 16.1002 98.5479 14.6322V30.3175C98.5479 30.4931 98.6916 30.6367 98.8671 30.6367H101.819C101.995 30.6367 102.154 30.4931 102.154 30.3175V13.0365C105.649 11.2654 109.095 8.88783 112.973 5.5529C113.084 5.45716 113.116 5.31355 113.068 5.18589C113.021 5.05824 112.909 4.97846 112.765 4.97846" fill="#2A363B"/>
<path d="M155.561 27.0145H142.461C142.381 27.0145 142.301 26.9507 142.301 26.855V10.6909C142.301 10.6111 142.237 10.5314 142.141 10.5314H139.365C139.285 10.5314 139.205 10.5952 139.205 10.6909V26.8709C139.205 26.9507 139.142 27.0305 139.046 27.0305H133.621C133.541 27.0305 133.461 26.9667 133.461 26.8709V15.4619C133.461 15.3822 133.397 15.3024 133.301 15.3024H130.525C130.445 15.3024 130.365 15.3662 130.365 15.4619V26.8709C130.365 26.9507 130.302 27.0305 130.206 27.0305H125.914C125.834 27.0305 125.754 27.0943 125.754 27.19V29.9665C125.754 30.0463 125.818 30.1261 125.914 30.1261H155.481C155.561 30.1261 155.641 30.0622 155.641 29.9665V27.19C155.641 27.1103 155.577 27.0305 155.481 27.0305" fill="#2A363B"/>
<path d="M151.795 19.7383L152.689 16.5151C152.721 16.4193 152.641 16.3236 152.529 16.3236L143.386 16.6427V19.2437L151.636 19.85C151.636 19.85 151.779 19.8021 151.795 19.7383Z" fill="#2A363B"/>
<path d="M159.375 11.4728C159.071 11.4409 158.768 11.393 158.481 11.3292C148.811 9.06335 141.072 1.75523 140.993 1.67544L140.785 1.45205L140.562 1.67544C140.482 1.75523 132.743 9.07931 123.073 11.3292C122.786 11.393 122.483 11.4409 122.18 11.4728C122.052 11.4728 121.988 11.6324 122.068 11.7121L125.084 15.3183L125.275 15.2545C132.615 12.877 138.503 7.57938 140.37 5.95181C140.61 5.74438 140.945 5.74438 141.184 5.95181C143.051 7.57938 148.939 12.877 156.279 15.2545L156.47 15.3183L159.486 11.7121C159.566 11.6164 159.502 11.4728 159.375 11.4728Z" fill="#2A363B"/>
<path d="M74.996 5.90394H44.5189C44.3434 5.90394 44.1838 6.04755 44.1838 6.22307V9.17504C44.1838 9.35057 44.3274 9.49418 44.5189 9.49418H70.5282L66.7624 16.1002C66.6986 16.1959 66.6986 16.3236 66.7624 16.4193C66.8262 16.5151 66.922 16.5789 67.0496 16.5789H69.8899C69.9856 16.5789 70.0973 16.531 70.1452 16.4513L75.2673 9.47822C75.2673 9.47822 75.3311 9.35057 75.3311 9.28674V6.22307C75.3311 6.04755 75.1875 5.90394 74.996 5.90394Z" fill="#2A363B"/>
<path d="M57.2842 11.7919C57.4118 18.6533 54.9067 23.7913 49.4016 28.0038C49.3218 28.0677 49.274 28.1474 49.274 28.2432C49.274 28.3389 49.3059 28.4347 49.3697 28.4985L51.476 30.4771C51.476 30.4771 51.6196 30.5728 51.6994 30.5728C51.7632 30.5728 51.843 30.5409 51.8909 30.509C58.0661 25.8337 60.8266 20.0574 60.8585 11.7919V11.6962H57.2682V11.7919H57.2842Z" fill="#2A363B"/>
<path d="M24.637 24.0306V20.8393C24.637 20.8393 24.6529 20.7914 24.6849 20.7914H26.1529C26.1529 20.7914 26.2007 20.7755 26.2007 20.7436V20.0734C26.2007 20.0734 26.1848 20.0255 26.1529 20.0255H24.6849C24.6849 20.0255 24.637 20.0096 24.637 19.9777V17.664C24.637 17.664 24.621 17.6161 24.5891 17.6161H23.8551C23.8551 17.6161 23.8072 17.632 23.8072 17.664V19.9777C23.8072 19.9777 23.7913 20.0255 23.7594 20.0255H22.2914C22.2914 20.0255 22.2435 20.0415 22.2435 20.0734V20.7436C22.2435 20.7436 22.2595 20.7914 22.2914 20.7914H23.7594C23.7594 20.7914 23.8072 20.8074 23.8072 20.8393V24.0306C23.8072 24.0306 23.7913 24.0785 23.7594 24.0785H21.3499C21.3499 24.0785 21.3021 24.0945 21.3021 24.1264V24.7966C21.3021 24.7966 21.318 24.8444 21.3499 24.8444H27.1103C27.1103 24.8444 27.1581 24.8285 27.1581 24.7966V24.1264C27.1581 24.1264 27.1422 24.0785 27.1103 24.0785H24.7008C24.7008 24.0785 24.6529 24.0626 24.6529 24.0306" fill="#2A363B"/>
<path d="M20.3606 17.632H19.6266C19.6266 17.632 19.5787 17.648 19.5787 17.6799V18.6214H20.4085V17.6799C20.4085 17.6799 20.3925 17.632 20.3606 17.632Z" fill="#2A363B"/>
<path d="M21.9722 22.4828V21.5893C21.9722 21.5893 21.9722 21.5574 21.9403 21.5414L20.6798 20.9989C20.6798 20.9989 20.6478 20.951 20.6798 20.9191C21.4138 20.2808 21.9882 19.7383 21.9882 19.7383C21.9882 19.7383 21.9722 19.7383 21.9563 19.7383H21.9882V18.9564C21.9882 18.9564 21.9722 18.9086 21.9403 18.9086H18.0948C18.0948 18.9086 18.0469 18.9245 18.0469 18.9564V19.6904C18.0469 19.6904 18.0629 19.7383 18.0948 19.7383H20.7914C20.7914 19.7383 20.8553 19.7862 20.8234 19.8181C20.1372 20.4723 18.8926 21.4935 17.4086 21.9722C17.3767 21.9722 17.3608 22.0201 17.3927 22.052L18.031 22.7541C18.031 22.7541 18.0629 22.7701 18.0788 22.7541C18.4299 22.6584 18.9724 22.3073 19.5309 21.8765C19.5628 21.8605 19.6107 21.8765 19.6107 21.9084V25.2753C19.6107 25.2753 19.6266 25.3231 19.6585 25.3231H20.3925C20.3925 25.3231 20.4404 25.3072 20.4404 25.2753V21.8925C20.4404 21.8925 20.4723 21.8286 20.5042 21.8446L21.9244 22.5148C21.9244 22.5148 21.9882 22.5148 21.9882 22.4669" fill="#2A363B"/>
<path d="M8.42508 20.6957V21.4457C8.42508 21.4457 8.44104 21.4776 8.47295 21.4776H12.877C12.877 21.4776 12.9248 21.4616 12.9248 21.4457V20.6957C12.9248 20.6957 12.9089 20.6478 12.877 20.6478H8.47295C8.47295 20.6478 8.42508 20.6638 8.42508 20.6957Z" fill="#2A363B"/>
<path d="M7.37195 22.9137H8.87187C8.87187 22.9137 8.91974 22.9456 8.90378 22.9775L7.89852 25.0838C7.89852 25.0838 7.89852 25.1476 7.93043 25.1476H13.3876C13.3876 25.1476 13.4355 25.1316 13.4355 25.0997V24.3179C13.4355 24.3179 13.4355 24.3179 13.4355 24.3019L13.1163 23.6317C13.1163 23.6317 13.1004 23.6158 13.0844 23.6158H12.2547C12.2547 23.6158 12.2068 23.6477 12.2228 23.6796L12.51 24.27C12.51 24.27 12.51 24.3338 12.4781 24.3338H9.28674C9.28674 24.3338 9.23887 24.3019 9.25483 24.27L9.89309 22.9615C9.89309 22.9615 9.90905 22.9296 9.925 22.9296H14.0099C14.0099 22.9296 14.0578 22.9137 14.0578 22.8818V22.1318C14.0578 22.1318 14.0418 22.0839 14.0099 22.0839H7.41982C7.41982 22.0839 7.37195 22.0999 7.37195 22.1318V22.8818C7.37195 22.8818 7.38791 22.9296 7.41982 22.9296" fill="#2A363B"/>
<path d="M15.3662 20.1053C15.3662 20.1053 15.2066 20.0894 15.1428 20.0734C12.7015 19.499 10.7547 17.664 10.7388 17.632L10.6909 17.5682L10.6431 17.632C10.6431 17.632 8.66443 19.499 6.23903 20.0734C6.19116 20.0734 6.14329 20.0894 6.09542 20.1053C6.03159 20.1053 5.99968 20.1851 6.04755 20.233L6.74964 21.0787H6.79751C8.64848 20.4564 10.1324 19.132 10.6111 18.7171C10.675 18.6692 10.7547 18.6692 10.8186 18.7171C11.2813 19.132 12.7812 20.4564 14.6322 21.0627H14.6801L15.446 20.1691C15.4619 20.1372 15.446 20.1053 15.4141 20.1053" fill="#2A363B"/>
<path d="M15.6215 9.60587V8.85591C15.6215 8.85591 15.6056 8.80804 15.5736 8.80804H10.3239C10.3239 8.80804 10.276 8.77613 10.292 8.76017C10.3877 8.47295 10.4675 8.16978 10.5314 7.85065C10.5314 7.81873 10.5314 7.80278 10.4835 7.80278H9.60587C9.60587 7.80278 9.558 7.81873 9.558 7.85065C9.558 8.15382 9.49418 8.47295 9.38248 8.79209C9.38248 8.80804 9.36652 8.824 9.33461 8.824H6.63794C6.63794 8.824 6.59008 8.83996 6.59008 8.87187V9.62183C6.59008 9.62183 6.60603 9.6697 6.63794 9.6697H8.85591C8.85591 9.6697 8.91974 9.70161 8.88783 9.73353C8.20169 10.7547 7.08473 11.6802 5.98372 12.1749C5.95181 12.1749 5.95181 12.2228 5.98372 12.2387L6.78155 12.9568C6.78155 12.9568 6.81347 12.9568 6.82942 12.9568C7.59534 12.4302 8.31339 11.9036 8.91974 11.2015C8.95165 11.1696 8.99952 11.2015 8.99952 11.2334V15.6215C8.99952 15.6215 9.01548 15.6694 9.04739 15.6694H9.79735C9.79735 15.6694 9.84522 15.6534 9.84522 15.6215V13.8822C9.84522 13.8822 9.86118 13.8344 9.89309 13.8344H12.6217C12.6217 13.8344 12.6695 13.8503 12.6695 13.8822V15.6215C12.6695 15.6215 12.6855 15.6694 12.7174 15.6694H13.4674C13.4674 15.6694 13.5152 15.6534 13.5152 15.6215V10.3239C13.5152 10.3239 13.4993 10.2761 13.4674 10.2761H9.62183C9.73353 10.0846 9.84522 9.89309 9.94096 9.68566C9.94096 9.68566 9.95692 9.65374 9.97287 9.65374H15.5736C15.5736 9.65374 15.6215 9.63779 15.6215 9.60587ZM12.6217 13.1482H9.89309C9.89309 13.1482 9.84522 13.1323 9.84522 13.1004V12.51C9.84522 12.51 9.86118 12.4621 9.89309 12.4621H12.6217C12.6217 12.4621 12.6695 12.4781 12.6695 12.51V13.1004C12.6695 13.1004 12.6536 13.1482 12.6217 13.1482ZM12.6695 11.1377V11.7281C12.6695 11.7281 12.6536 11.776 12.6217 11.776H9.89309C9.89309 11.776 9.84522 11.76 9.84522 11.7281V11.1377C9.84522 11.1377 9.86118 11.0898 9.89309 11.0898H12.6217C12.6217 11.0898 12.6695 11.1058 12.6695 11.1377Z" fill="#2A363B"/>
<path d="M22.2435 11.8558C22.2435 11.8558 22.2595 11.8079 22.2914 11.8079H25.4827C25.4827 11.8079 25.5306 11.7919 25.5306 11.76V8.29743C25.5306 8.29743 25.5146 8.24956 25.4827 8.24956H21.4616C21.4616 8.24956 21.4138 8.26552 21.4138 8.29743V15.5896C21.4138 15.5896 21.4297 15.6375 21.4616 15.6375L23.8551 15.4939C23.8551 15.4939 23.887 15.4779 23.887 15.446V14.4886C23.887 14.4886 23.8711 14.4407 23.8392 14.4407L22.2914 14.6641C22.2914 14.6641 22.2435 14.6641 22.2435 14.6162V11.8238V11.8558ZM24.6529 10.9781H22.2914C22.2914 10.9781 22.2435 10.9622 22.2435 10.9303V10.4197C22.2435 10.4197 22.2595 10.3718 22.2914 10.3718H24.6529C24.6529 10.3718 24.7008 10.3877 24.7008 10.4197V10.9303C24.7008 10.9303 24.6849 10.9781 24.6529 10.9781ZM24.7008 9.14313V9.65374C24.7008 9.65374 24.6849 9.70161 24.6529 9.70161H22.2914C22.2914 9.70161 22.2435 9.68566 22.2435 9.65374V9.14313C22.2435 9.14313 22.2595 9.09526 22.2914 9.09526H24.6529C24.6529 9.09526 24.7008 9.11122 24.7008 9.14313Z" fill="#2A363B"/>
<path d="M24.2859 13.0844L24.9242 12.8291C24.9242 12.8291 24.9561 12.8132 24.9561 12.7972V11.9994C24.9561 11.9994 24.9242 11.9515 24.8923 11.9674C24.637 12.1111 23.6796 12.6057 22.6424 12.8131C22.6265 12.8131 22.6105 12.8291 22.6105 12.8451V13.6589C22.6105 13.6589 22.6584 13.7067 22.6903 13.6908L23.4722 13.3876C23.4722 13.3876 23.5041 13.3876 23.52 13.3876C24.1423 14.2492 24.988 15.063 26.1688 15.6215C26.1688 15.6215 26.2007 15.6215 26.2167 15.6215L27.1262 14.9194C27.1262 14.9194 27.1422 14.8556 27.1262 14.8396C26.121 14.6162 24.8285 13.7386 24.2859 13.1323C24.27 13.1163 24.2859 13.0685 24.3019 13.0685" fill="#2A363B"/>
<path d="M19.132 13.4993C19.8979 12.6855 19.8979 11.4249 19.1639 10.5952C19.1479 10.5633 19.132 10.5314 19.1639 10.4994L19.7543 9.15909C19.7543 9.15909 19.7543 9.09526 19.7224 9.09526H18.5416C18.5416 9.09526 18.4937 9.11122 18.4937 9.14313V15.6056C18.4937 15.6056 18.4777 15.6534 18.4618 15.6534H17.7118C17.7118 15.6534 17.664 15.6375 17.664 15.6056V8.31339C17.664 8.31339 17.6799 8.28148 17.7118 8.28148H20.9829C21.0787 8.28148 21.1265 8.37722 21.0946 8.457L20.1691 10.5154C20.1691 10.5154 20.1691 10.5792 20.1691 10.6111C20.9031 11.4409 20.8872 12.6695 20.1691 13.4993C20.1532 13.5152 20.1213 13.5312 20.1053 13.5312H19.1479L19.132 13.4993Z" fill="#2A363B"/>
<path d="M23.2328 33.1259H9.89309C4.43593 33.1259 0 28.69 0 23.2169V9.89309C0 4.43593 4.43593 0 9.89309 0H23.2169C28.674 0 33.1099 4.43593 33.1099 9.89309V23.2169C33.1099 28.674 28.674 33.1259 23.2169 33.1259M9.89309 0.861656C4.91463 0.861656 0.861656 4.91463 0.861656 9.89309V23.2169C0.861656 28.1953 4.91463 32.2642 9.90905 32.2642H23.2328C28.2113 32.2642 32.2802 28.2113 32.2802 23.2169V9.89309C32.2802 4.91463 28.2272 0.8457 23.2328 0.8457H9.89309V0.861656Z" fill="#2A363B"/>
</g>
</svg>
