<svg preserveAspectRatio="xMidYMid meet" width="232" height="38" overflow="visible" style="display: block;" viewBox="0 0 232 38" fill="none" xmlns="http://www.w3.org/2000/svg">
<g id="Vector">
<path d="M231.796 4.74085H191.427C191.334 4.74085 191.242 4.81407 191.242 4.92389V8.10886C191.242 8.20038 191.316 8.29191 191.427 8.29191H209.659C209.751 8.29191 209.844 8.36513 209.844 8.47495V12.6484C209.844 12.7399 209.77 12.8314 209.659 12.8314H201.681C201.589 12.8314 201.496 12.9046 201.496 13.0145V28.5183C201.496 28.6098 201.57 28.7013 201.681 28.7013H221.727V12.9778C221.727 12.8863 221.653 12.7948 221.561 12.7948H213.583C213.49 12.7948 213.398 12.7216 213.398 12.6118V8.43834C213.398 8.34682 213.472 8.2553 213.583 8.2553H231.815C231.907 8.2553 232 8.18208 232 8.07225V4.88728C232 4.79576 231.926 4.70424 231.815 4.70424M209.825 26.0106C209.825 26.1021 209.751 26.1936 209.64 26.1936H205.235C205.142 26.1936 205.05 26.1204 205.05 26.0106V22.1484C205.05 22.0568 205.124 21.9653 205.235 21.9653H209.64C209.733 21.9653 209.825 22.0385 209.825 22.1484V26.0106ZM209.825 19.3112C209.825 19.4027 209.751 19.4942 209.64 19.4942H205.235C205.142 19.4942 205.05 19.421 205.05 19.3112V15.9615C205.05 15.8699 205.124 15.7784 205.235 15.7784H209.64C209.733 15.7784 209.825 15.8516 209.825 15.9615V19.3112ZM218.155 26.0106C218.155 26.1021 218.081 26.1936 217.97 26.1936H213.564C213.472 26.1936 213.379 26.1204 213.379 26.0106V22.1484C213.379 22.0568 213.453 21.9653 213.564 21.9653H217.97C218.062 21.9653 218.155 22.0385 218.155 22.1484V26.0106ZM213.583 15.7967H217.988C218.081 15.7967 218.173 15.8699 218.173 15.9798V19.3295C218.173 19.421 218.099 19.5125 217.988 19.5125H213.583C213.49 19.5125 213.398 19.4393 213.398 19.3295V15.9798C213.398 15.8882 213.472 15.7967 213.583 15.7967Z" fill="#FFFFFF"/>
<path d="M224.633 31.6667C224.633 31.7582 224.559 31.8497 224.448 31.8497H198.757C198.664 31.8497 198.572 31.7765 198.572 31.6667V12.7948H194.999V35.1994C194.999 35.2909 195.073 35.3825 195.184 35.3825H228.02C228.113 35.3825 228.206 35.3092 228.206 35.1994V12.7948H224.633V31.6667Z" fill="#FFFFFF"/>
<path d="M130.826 5.67437H125.421C125.421 5.67437 125.273 5.69268 125.199 5.74759C115.796 12.3372 111.687 14.2775 98.7305 16.4191C98.6009 16.4374 98.4899 16.5289 98.4343 16.657C98.3788 16.7852 98.3973 16.9133 98.4714 17.0231L100.693 19.9884C100.693 19.9884 100.878 20.1349 101.044 20.1349H101.063C105.32 19.4027 109.873 18.4692 114.316 16.7852V34.7784C114.316 34.9798 114.482 35.1445 114.686 35.1445H118.11C118.314 35.1445 118.499 34.9798 118.499 34.7784V14.9547C122.552 12.9229 126.551 10.1956 131.048 6.36994C131.178 6.26012 131.215 6.09538 131.159 5.94894C131.104 5.8025 130.974 5.71098 130.808 5.71098" fill="#FFFFFF"/>
<path d="M180.451 30.9894H165.254C165.162 30.9894 165.069 30.9162 165.069 30.8064V12.264C165.069 12.1724 164.995 12.0809 164.884 12.0809H161.663C161.571 12.0809 161.478 12.1541 161.478 12.264V30.8247C161.478 30.9162 161.404 31.0077 161.293 31.0077H155C154.907 31.0077 154.815 30.9345 154.815 30.8247V17.737C154.815 17.6455 154.741 17.554 154.63 17.554H151.409C151.316 17.554 151.224 17.6272 151.224 17.737V30.8247C151.224 30.9162 151.15 31.0077 151.039 31.0077H146.06C145.967 31.0077 145.875 31.0809 145.875 31.1908V34.3757C145.875 34.4672 145.949 34.5588 146.06 34.5588H180.358C180.451 34.5588 180.543 34.4856 180.543 34.3757V31.1908C180.543 31.0992 180.469 31.0077 180.358 31.0077" fill="#FFFFFF"/>
<path d="M176.082 22.6426L177.119 18.9451C177.156 18.8353 177.063 18.7254 176.934 18.7254L166.328 19.0915V22.0751L175.897 22.7707C175.897 22.7707 176.064 22.7158 176.082 22.6426Z" fill="#FFFFFF"/>
<path d="M184.874 13.1609C184.523 13.1243 184.171 13.0694 183.838 12.9961C172.621 10.3969 163.644 2.01349 163.551 1.92197L163.311 1.6657L163.052 1.92197C162.959 2.01349 153.982 10.4152 142.765 12.9961C142.432 13.0694 142.08 13.1243 141.728 13.1609C141.58 13.1609 141.506 13.3439 141.599 13.4355L145.097 17.5723L145.319 17.499C153.834 14.7717 160.664 8.6946 162.829 6.82755C163.107 6.5896 163.496 6.5896 163.773 6.82755C165.939 8.6946 172.769 14.7717 181.284 17.499L181.506 17.5723L185.004 13.4355C185.097 13.3256 185.023 13.1609 184.874 13.1609Z" fill="#FFFFFF"/>
<path d="M86.9954 6.77264H51.6419C51.4383 6.77264 51.2532 6.93738 51.2532 7.13873V10.525C51.2532 10.7264 51.4198 10.8911 51.6419 10.8911H81.8127L77.4444 18.4692C77.3704 18.579 77.3704 18.7254 77.4444 18.8353C77.5184 18.9451 77.6295 19.0183 77.7776 19.0183H81.0723C81.1833 19.0183 81.3129 18.9634 81.3684 18.8719L87.31 10.8728C87.31 10.8728 87.3841 10.7264 87.3841 10.6532V7.13873C87.3841 6.93738 87.2175 6.77264 86.9954 6.77264Z" fill="#FFFFFF"/>
<path d="M66.4497 13.527C66.5977 21.3979 63.6917 27.2919 57.3059 32.1243C57.2133 32.1975 57.1578 32.289 57.1578 32.3988C57.1578 32.5087 57.1948 32.6185 57.2689 32.6917L59.7121 34.9615C59.7121 34.9615 59.8787 35.0713 59.9713 35.0713C60.0453 35.0713 60.1379 35.0347 60.1934 34.9981C67.3566 29.6349 70.5588 23.0087 70.5958 13.527V13.4171H66.4311V13.527H66.4497Z" fill="#FFFFFF"/>
<path d="M28.5789 27.5665V23.9056C28.5789 23.9056 28.5974 23.8507 28.6344 23.8507H30.3373C30.3373 23.8507 30.3929 23.8324 30.3929 23.7958V23.027C30.3929 23.027 30.3743 22.9721 30.3373 22.9721H28.6344C28.6344 22.9721 28.5789 22.9538 28.5789 22.9171V20.263C28.5789 20.263 28.5604 20.2081 28.5234 20.2081H27.6719C27.6719 20.2081 27.6164 20.2264 27.6164 20.263V22.9171C27.6164 22.9171 27.5979 22.9721 27.5609 22.9721H25.858C25.858 22.9721 25.8025 22.9904 25.8025 23.027V23.7958C25.8025 23.7958 25.821 23.8507 25.858 23.8507H27.5609C27.5609 23.8507 27.6164 23.869 27.6164 23.9056V27.5665C27.6164 27.5665 27.5979 27.6214 27.5609 27.6214H24.7659C24.7659 27.6214 24.7104 27.6397 24.7104 27.6763V28.4451C24.7104 28.4451 24.7289 28.5 24.7659 28.5H31.4479C31.4479 28.5 31.5034 28.4817 31.5034 28.4451V27.6763C31.5034 27.6763 31.4849 27.6214 31.4479 27.6214H28.6529C28.6529 27.6214 28.5974 27.6031 28.5974 27.5665" fill="#FFFFFF"/>
<path d="M23.6183 20.2264H22.7669C22.7669 20.2264 22.7113 20.2447 22.7113 20.2813V21.3613H23.6738V20.2813C23.6738 20.2813 23.6553 20.2264 23.6183 20.2264Z" fill="#FFFFFF"/>
<path d="M25.4878 25.7909V24.7659C25.4878 24.7659 25.4878 24.7293 25.4508 24.711L23.9885 24.0886C23.9885 24.0886 23.9515 24.0337 23.9885 23.9971C24.84 23.2649 25.5063 22.6426 25.5063 22.6426C25.5063 22.6426 25.4878 22.6426 25.4693 22.6426H25.5063V21.7457C25.5063 21.7457 25.4878 21.6908 25.4508 21.6908H20.9899C20.9899 21.6908 20.9344 21.7091 20.9344 21.7457V22.5877C20.9344 22.5877 20.9529 22.6426 20.9899 22.6426H24.1181C24.1181 22.6426 24.1921 22.6975 24.1551 22.7341C23.3592 23.4846 21.9154 24.6561 20.194 25.2052C20.157 25.2052 20.1385 25.2601 20.1755 25.2967L20.9159 26.1021C20.9159 26.1021 20.9529 26.1204 20.9714 26.1021C21.3787 25.9923 22.008 25.5896 22.6558 25.0954C22.6928 25.0771 22.7484 25.0954 22.7484 25.132V28.9942C22.7484 28.9942 22.7669 29.0491 22.8039 29.0491H23.6553C23.6553 29.0491 23.7109 29.0308 23.7109 28.9942V25.1137C23.7109 25.1137 23.7479 25.0405 23.7849 25.0588L25.4323 25.8276C25.4323 25.8276 25.5063 25.8276 25.5063 25.7726" fill="#FFFFFF"/>
<path d="M9.7731 23.7408V24.6012C9.7731 24.6012 9.79161 24.6378 9.82863 24.6378H14.9373C14.9373 24.6378 14.9928 24.6195 14.9928 24.6012V23.7408C14.9928 23.7408 14.9743 23.6859 14.9373 23.6859H9.82863C9.82863 23.6859 9.7731 23.7042 9.7731 23.7408Z" fill="#FFFFFF"/>
<path d="M8.55146 26.2852H10.2914C10.2914 26.2852 10.3469 26.3218 10.3284 26.3584L9.16228 28.7746C9.16228 28.7746 9.16228 28.8478 9.1993 28.8478H15.5296C15.5296 28.8478 15.5851 28.8295 15.5851 28.7929V27.896C15.5851 27.896 15.5851 27.896 15.5851 27.8776L15.2149 27.1089C15.2149 27.1089 15.1964 27.0906 15.1779 27.0906H14.2154C14.2154 27.0906 14.1599 27.1272 14.1784 27.1638L14.5116 27.841C14.5116 27.841 14.5116 27.9143 14.4745 27.9143H10.7726C10.7726 27.9143 10.7171 27.8776 10.7356 27.841L11.476 26.3401C11.476 26.3401 11.4945 26.3035 11.513 26.3035H16.2515C16.2515 26.3035 16.307 26.2852 16.307 26.2486V25.3882C16.307 25.3882 16.2885 25.3333 16.2515 25.3333H8.60699C8.60699 25.3333 8.55146 25.3516 8.55146 25.3882V26.2486C8.55146 26.2486 8.56997 26.3035 8.60699 26.3035" fill="#FFFFFF"/>
<path d="M17.8248 23.0636C17.8248 23.0636 17.6397 23.0453 17.5657 23.027C14.7337 22.368 12.4755 20.263 12.457 20.2264L12.4015 20.1532L12.3459 20.2264C12.3459 20.2264 10.0507 22.368 7.23727 23.027C7.18175 23.027 7.12622 23.0453 7.07069 23.0636C6.99665 23.0636 6.95963 23.1551 7.01516 23.21L7.82958 24.1802H7.88511C10.0322 23.4663 11.7536 21.947 12.3089 21.4711C12.383 21.4162 12.4755 21.4162 12.5495 21.4711C13.0863 21.947 14.8262 23.4663 16.9734 24.1618H17.0289L17.9173 23.1368C17.9359 23.1002 17.9173 23.0636 17.8803 23.0636" fill="#FFFFFF"/>
<path d="M18.121 11.0193V10.159C18.121 10.159 18.1024 10.104 18.0654 10.104H11.9757C11.9757 10.104 11.9202 10.0674 11.9387 10.0491C12.0498 9.71965 12.1423 9.37187 12.2164 9.00578C12.2164 8.96917 12.2164 8.95087 12.1608 8.95087H11.1428C11.1428 8.95087 11.0873 8.96917 11.0873 9.00578C11.0873 9.35356 11.0132 9.71965 10.8837 10.0857C10.8837 10.104 10.8652 10.1224 10.8281 10.1224H7.70002C7.70002 10.1224 7.64449 10.1407 7.64449 10.1773V11.0376C7.64449 11.0376 7.663 11.0925 7.70002 11.0925H10.2729C10.2729 11.0925 10.3469 11.1291 10.3099 11.1657C9.51396 12.3372 8.21829 13.3988 6.94112 13.9663C6.9041 13.9663 6.9041 14.0212 6.94112 14.0395L7.8666 14.8632C7.8666 14.8632 7.90362 14.8632 7.92213 14.8632C8.8106 14.2592 9.64353 13.6551 10.3469 12.8497C10.3839 12.8131 10.4394 12.8497 10.4394 12.8863V17.92C10.4394 17.92 10.458 17.975 10.495 17.975H11.3649C11.3649 17.975 11.4205 17.9566 11.4205 17.92V15.9249C11.4205 15.9249 11.439 15.8699 11.476 15.8699H14.6411C14.6411 15.8699 14.6967 15.8882 14.6967 15.9249V17.92C14.6967 17.92 14.7152 17.975 14.7522 17.975H15.6221C15.6221 17.975 15.6777 17.9566 15.6777 17.92V11.843C15.6777 11.843 15.6592 11.7881 15.6221 11.7881H11.1613C11.2909 11.5684 11.4205 11.3487 11.5315 11.1108C11.5315 11.1108 11.55 11.0742 11.5685 11.0742H18.0654C18.0654 11.0742 18.121 11.0559 18.121 11.0193ZM14.6411 15.0829H11.476C11.476 15.0829 11.4205 15.0645 11.4205 15.0279V14.3507C11.4205 14.3507 11.439 14.2958 11.476 14.2958H14.6411C14.6411 14.2958 14.6967 14.3141 14.6967 14.3507V15.0279C14.6967 15.0279 14.6782 15.0829 14.6411 15.0829ZM14.6967 12.7765V13.4538C14.6967 13.4538 14.6782 13.5087 14.6411 13.5087H11.476C11.476 13.5087 11.4205 13.4904 11.4205 13.4538V12.7765C11.4205 12.7765 11.439 12.7216 11.476 12.7216H14.6411C14.6411 12.7216 14.6967 12.7399 14.6967 12.7765Z" fill="#FFFFFF"/>
<path d="M25.8025 13.6002C25.8025 13.6002 25.821 13.5453 25.858 13.5453H29.5599C29.5599 13.5453 29.6154 13.527 29.6154 13.4904V9.5183C29.6154 9.5183 29.5969 9.46339 29.5599 9.46339H24.8955C24.8955 9.46339 24.84 9.4817 24.84 9.5183V17.8834C24.84 17.8834 24.8585 17.9383 24.8955 17.9383L27.6719 17.7736C27.6719 17.7736 27.709 17.7553 27.709 17.7187V16.6204C27.709 16.6204 27.6904 16.5655 27.6534 16.5655L25.858 16.8218C25.858 16.8218 25.8025 16.8218 25.8025 16.7669V13.5636V13.6002ZM28.5974 12.5934H25.858C25.858 12.5934 25.8025 12.5751 25.8025 12.5385V11.9528C25.8025 11.9528 25.821 11.8979 25.858 11.8979H28.5974C28.5974 11.8979 28.6529 11.9162 28.6529 11.9528V12.5385C28.6529 12.5385 28.6344 12.5934 28.5974 12.5934ZM28.6529 10.4884V11.0742C28.6529 11.0742 28.6344 11.1291 28.5974 11.1291H25.858C25.858 11.1291 25.8025 11.1108 25.8025 11.0742V10.4884C25.8025 10.4884 25.821 10.4335 25.858 10.4335H28.5974C28.5974 10.4335 28.6529 10.4518 28.6529 10.4884Z" fill="#FFFFFF"/>
<path d="M28.1717 15.0096L28.9121 14.7168C28.9121 14.7168 28.9491 14.6985 28.9491 14.6802V13.7649C28.9491 13.7649 28.9121 13.71 28.8751 13.7283C28.5789 13.8931 27.4683 14.4605 26.2652 14.6985C26.2467 14.6985 26.2282 14.7168 26.2282 14.7351V15.6686C26.2282 15.6686 26.2837 15.7235 26.3207 15.7052L27.2277 15.3574C27.2277 15.3574 27.2647 15.3574 27.2832 15.3574C28.0051 16.3459 28.9861 17.2794 30.3558 17.92C30.3558 17.92 30.3929 17.92 30.4114 17.92L31.4664 17.1146C31.4664 17.1146 31.4849 17.0414 31.4664 17.0231C30.3003 16.7669 28.801 15.7601 28.1717 15.0645C28.1532 15.0462 28.1717 14.9913 28.1902 14.9913" fill="#FFFFFF"/>
<path d="M22.1931 15.4855C23.0815 14.552 23.0815 13.106 22.2301 12.1541C22.2116 12.1175 22.1931 12.0809 22.2301 12.0443L22.915 10.5067C22.915 10.5067 22.915 10.4335 22.8779 10.4335H21.5082C21.5082 10.4335 21.4527 10.4518 21.4527 10.4884V17.9017C21.4527 17.9017 21.4342 17.9566 21.4157 17.9566H20.5457C20.5457 17.9566 20.4902 17.9383 20.4902 17.9017V9.53661C20.4902 9.53661 20.5087 9.5 20.5457 9.5H24.3402C24.4513 9.5 24.5068 9.60983 24.4698 9.70135L23.3962 12.0626C23.3962 12.0626 23.3962 12.1358 23.3962 12.1724C24.2476 13.1243 24.2291 14.5337 23.3962 15.4855C23.3777 15.5039 23.3407 15.5222 23.3222 15.5222H22.2116L22.1931 15.4855Z" fill="#FFFFFF"/>
<path d="M26.9501 38H11.476C5.14568 38 0 32.9114 0 26.6329V11.3487C0 5.08863 5.14568 0 11.476 0H26.9315C33.2618 0 38.4075 5.08863 38.4075 11.3487V26.6329C38.4075 32.8931 33.2618 38 26.9315 38M11.476 0.988439C5.70097 0.988439 0.999521 5.63776 0.999521 11.3487V26.6329C0.999521 32.3439 5.70097 37.0116 11.4945 37.0116H26.9501C32.7251 37.0116 37.445 32.3622 37.445 26.6329V11.3487C37.445 5.63776 32.7436 0.970135 26.9501 0.970135H11.476V0.988439Z" fill="#FFFFFF"/>
</g>
</svg>
