<svg preserveAspectRatio="none" width="100%" height="100%" overflow="visible" style="display: block;" viewBox="0 0 105.902 56.0137" fill="none" xmlns="http://www.w3.org/2000/svg">
<g id="Group">
<path id="Vector" d="M105.785 52.6629L91.0945 32.5654C91.0603 32.5109 91.0397 32.4494 91.0397 32.388V0.600536C91.0397 0.266147 90.7656 0 90.4367 0H86.7846C86.4489 0 86.1816 0.272971 86.1816 0.600536V11.0007C86.1816 11.1645 86.0446 11.301 85.8802 11.301H44.5556C44.3912 11.301 44.2541 11.1645 44.2541 11.0007V0.600536C44.2541 0.266147 43.98 0 43.6511 0H39.999C39.6633 0 39.396 0.272971 39.396 0.600536V11.0007C39.396 11.1645 39.259 11.301 39.0945 11.301H22.5949C22.2591 11.301 21.9919 11.574 21.9919 11.9015V35.0904C21.9919 35.4248 22.266 35.691 22.5949 35.691H39.0945C39.259 35.691 39.396 35.8274 39.396 35.9912V55.3926C39.396 55.727 39.6701 55.9932 39.999 55.9932H43.6511C43.9869 55.9932 44.2541 55.7202 44.2541 55.3926V35.9912C44.2541 35.8274 44.3912 35.691 44.5556 35.691H83.2421C83.4888 35.691 83.6327 35.9708 83.4888 36.1687L71.4361 52.6561C71.2374 52.9223 71.2991 53.3044 71.5663 53.4955L74.5195 55.6383C74.7867 55.8362 75.1704 55.7748 75.3623 55.5087L88.3674 37.7178C88.4908 37.554 88.7374 37.554 88.8539 37.7178L101.859 55.5087C102.058 55.7748 102.435 55.8362 102.702 55.6383L105.655 53.4955C105.922 53.2976 105.984 52.9223 105.785 52.6561V52.6629ZM26.8363 30.5523V16.4465C26.8363 16.2827 26.9733 16.1462 27.1378 16.1462H39.3755V30.8526H27.1378C26.9733 30.8526 26.8363 30.7161 26.8363 30.5523ZM44.2404 16.1462H85.8664C86.0309 16.1462 86.1679 16.2827 86.1679 16.4465V30.5523C86.1679 30.7161 86.0309 30.8526 85.8664 30.8526H44.2404V16.1462Z" fill="var(--fill-0, black)"/>
<path id="Vector_2" d="M1.41521 22.3359L0.154438 23.7417C-0.0716784 23.9873 -0.0442703 24.3695 0.202402 24.5947L2.92266 27.0241C3.16933 27.2493 3.55304 27.222 3.77916 26.9764L5.03993 25.5774C6.70497 23.728 8.16445 21.7353 9.42522 19.6334C9.58282 19.3673 9.98709 19.4765 9.98709 19.7836V55.4131C9.98709 55.7475 10.2612 56.0137 10.5901 56.0137H14.2422C14.5779 56.0137 14.8452 55.7407 14.8452 55.4131V0.600536C14.852 0.272971 14.5779 0 14.249 0H10.5832C10.2543 0 9.98709 0.266147 9.98709 0.593712C9.8432 8.63271 6.8146 16.3373 1.42206 22.3359H1.41521Z" fill="var(--fill-0, black)"/>
</g>
</svg>
