<svg preserveAspectRatio="none" width="100%" height="100%" overflow="visible" style="display: block;" viewBox="0 0 142.858 11.2055" fill="none" xmlns="http://www.w3.org/2000/svg">
<g id="Group">
<g id="Group_2">
<path id="Vector" d="M2.08301 0.21848L7.7839 8.96038V0.21848H9.40782V10.9872H7.31111L1.61022 2.24529V10.9872H0V0.21848H2.08301Z" fill="var(--fill-0, black)"/>
<path id="Vector_2" d="M20.0696 8.07994L19.0349 10.9871H17.2191L21.2687 0.218378H23.4339L27.4835 10.9871H25.6677L24.633 8.07994H20.0696ZM24.126 6.68097L22.3376 1.76749L20.5629 6.68097H24.1191H24.126Z" fill="var(--fill-0, black)"/>
<path id="Vector_3" d="M36.9187 4.87253L41.1601 0.218378H43.1472L38.5563 5.14551L43.5446 10.9803H41.489L36.9256 5.41165V10.9803H35.3016V0.211555H36.9256V4.86571L36.9187 4.87253Z" fill="var(--fill-0, black)"/>
<path id="Vector_4" d="M54.2063 8.07994L53.1717 10.9871H51.3559L55.4055 0.218378H57.5707L61.6202 10.9871H59.8044L58.7698 8.07994H54.2063ZM58.2696 6.68097L56.4812 1.76749L54.7065 6.68097H58.2627H58.2696Z" fill="var(--fill-0, black)"/>
</g>
<g id="Group_3">
<path id="Vector_5" d="M93.5575 0.218378C94.4003 0.218378 94.9622 0.341215 95.3733 0.518646C96.2983 0.914454 96.915 1.78114 96.915 2.98903C96.915 4.4699 96.0859 5.00902 95.62 5.30929C96.127 5.58226 97.2713 6.17597 97.2713 7.94346C97.2713 10.9871 94.4209 10.9871 93.441 10.9871H89.7615V0.218378H93.5644H93.5575ZM91.3786 1.6856V4.70193H93.5575C94.3044 4.70193 95.3048 4.42896 95.3048 3.19376C95.3048 1.6856 93.9275 1.6856 93.304 1.6856H91.3786ZM91.3786 6.08043V9.51304H93.4068C94.277 9.51304 95.6405 9.43115 95.6405 7.8138C95.6405 6.19644 94.1262 6.07361 93.7083 6.07361H91.3786V6.08043Z" fill="var(--fill-0, black)"/>
<path id="Vector_6" d="M107.405 0.218378V10.9871H105.727V0.218378H107.405Z" fill="var(--fill-0, black)"/>
<path id="Vector_7" d="M121 10.9803H119.376V1.67877H115.875V0.211555H124.501V1.67877H121V10.9803Z" fill="var(--fill-0, black)"/>
<path id="Vector_8" d="M137.253 1.23962e-06C140.364 1.23962e-06 142.858 2.25201 142.858 5.59591C142.858 8.9398 140.364 11.2055 137.253 11.2055C134.142 11.2055 131.648 8.9944 131.662 5.59591C131.662 2.21789 134.183 1.23962e-06 137.253 1.23962e-06ZM137.253 9.73142C139.692 9.73142 141.248 7.71143 141.248 5.58908C141.248 3.46673 139.692 1.4604 137.267 1.4604C134.841 1.4604 133.272 3.45308 133.272 5.58908C133.272 7.72508 134.841 9.73142 137.253 9.73142Z" fill="var(--fill-0, black)"/>
</g>
<path id="Vector_9" d="M79.3396 4.89301H72.0422V6.29881H79.3396V4.89301Z" fill="var(--fill-0, black)"/>
</g>
</svg>
