<svg preserveAspectRatio="xMidYMid meet" width="232" height="38" overflow="visible" style="display: block;" viewBox="0 0 630 104.347" fill="none" xmlns="http://www.w3.org/2000/svg">
<g id="Vector">
<path d="M629.447 13.0182H519.823C519.572 13.0182 519.32 13.2192 519.32 13.5208V22.2666C519.32 22.518 519.521 22.7693 519.823 22.7693H569.332C569.584 22.7693 569.835 22.9703 569.835 23.2719V34.7319C569.835 34.9832 569.634 35.2346 569.332 35.2346H547.669C547.417 35.2346 547.166 35.4356 547.166 35.7372V78.3102C547.166 78.5615 547.367 78.8128 547.669 78.8128H602.104V35.6367C602.104 35.3854 601.903 35.134 601.652 35.134H579.988C579.737 35.134 579.485 34.933 579.485 34.6314V23.1714C579.485 22.9201 579.686 22.6687 579.988 22.6687H629.497C629.749 22.6687 630 22.4677 630 22.1661V13.4203C630 13.169 629.799 12.9177 629.497 12.9177M569.785 71.4241C569.785 71.6754 569.584 71.9268 569.282 71.9268H557.319C557.068 71.9268 556.817 71.7257 556.817 71.4241V60.8186C556.817 60.5673 557.018 60.3159 557.319 60.3159H569.282C569.533 60.3159 569.785 60.517 569.785 60.8186V71.4241ZM569.785 53.0278C569.785 53.2791 569.584 53.5304 569.282 53.5304H557.319C557.068 53.5304 556.817 53.3293 556.817 53.0278V43.8296C556.817 43.5783 557.018 43.327 557.319 43.327H569.282C569.533 43.327 569.785 43.528 569.785 43.8296V53.0278ZM592.403 71.4241C592.403 71.6754 592.202 71.9268 591.9 71.9268H579.938C579.686 71.9268 579.435 71.7257 579.435 71.4241V60.8186C579.435 60.5673 579.636 60.3159 579.938 60.3159H591.9C592.152 60.3159 592.403 60.517 592.403 60.8186V71.4241ZM579.988 43.3772H591.951C592.202 43.3772 592.453 43.5783 592.453 43.8798V53.078C592.453 53.3293 592.252 53.5807 591.951 53.5807H579.988C579.737 53.5807 579.485 53.3796 579.485 53.078V43.8798C579.485 43.6285 579.686 43.3772 579.988 43.3772Z" fill="#2A363B"/>
<path d="M609.995 86.9555C609.995 87.2068 609.794 87.4581 609.493 87.4581H539.727C539.476 87.4581 539.225 87.2571 539.225 86.9555V35.134H529.524V96.6563C529.524 96.9076 529.725 97.1589 530.026 97.1589H619.193C619.445 97.1589 619.696 96.9579 619.696 96.6563V35.134H609.995V86.9555Z" fill="#2A363B"/>
<path d="M355.261 15.5816H340.584C340.584 15.5816 340.182 15.6319 339.981 15.7827C314.447 33.8775 303.289 39.2054 268.104 45.0862C267.753 45.1364 267.451 45.3877 267.3 45.7396C267.149 46.0914 267.2 46.4433 267.401 46.7449L273.432 54.8875C273.432 54.8875 273.935 55.2896 274.387 55.2896H274.438C285.998 53.2791 298.363 50.7157 310.426 46.0914V95.5002C310.426 96.0531 310.878 96.5055 311.431 96.5055H320.73C321.283 96.5055 321.786 96.0531 321.786 95.5002V41.0651C332.793 35.4859 343.65 27.9966 355.864 17.4916C356.216 17.19 356.316 16.7377 356.166 16.3356C356.015 15.9335 355.663 15.6821 355.211 15.6821" fill="#2A363B"/>
<path d="M490.017 85.0957H448.751C448.499 85.0957 448.248 84.8947 448.248 84.5931V33.6764C448.248 33.4251 448.047 33.1738 447.745 33.1738H439C438.748 33.1738 438.497 33.3748 438.497 33.6764V84.6434C438.497 84.8947 438.296 85.146 437.994 85.146H420.905C420.653 85.146 420.402 84.945 420.402 84.6434V48.7051C420.402 48.4538 420.201 48.2025 419.899 48.2025H411.154C410.902 48.2025 410.651 48.4035 410.651 48.7051V84.6434C410.651 84.8947 410.45 85.146 410.148 85.146H396.628C396.376 85.146 396.125 85.3471 396.125 85.6486V94.3945C396.125 94.6458 396.326 94.8971 396.628 94.8971H489.765C490.017 94.8971 490.268 94.696 490.268 94.3945V85.6486C490.268 85.3973 490.067 85.146 489.765 85.146" fill="#2A363B"/>
<path d="M478.155 62.1757L480.969 52.0225C481.07 51.7209 480.819 51.4193 480.467 51.4193L451.666 52.4246V60.6175L477.652 62.5275C477.652 62.5275 478.104 62.3767 478.155 62.1757Z" fill="#2A363B"/>
<path d="M502.03 36.1393C501.075 36.0388 500.12 35.888 499.215 35.6869C468.755 28.5495 444.378 5.52896 444.126 5.27764L443.473 4.57396L442.769 5.27764C442.518 5.52896 418.14 28.5998 387.681 35.6869C386.776 35.888 385.821 36.0388 384.866 36.1393C384.464 36.1393 384.263 36.6419 384.514 36.8933L394.014 48.2528L394.617 48.0517C417.738 40.5625 436.285 23.8751 442.166 18.7482C442.92 18.0948 443.976 18.0948 444.73 18.7482C450.61 23.8751 469.158 40.5625 492.279 48.0517L492.882 48.2528L502.382 36.8933C502.633 36.5917 502.432 36.1393 502.03 36.1393Z" fill="#2A363B"/>
<path d="M236.237 18.5974H140.235C139.682 18.5974 139.179 19.0498 139.179 19.6027V28.9014C139.179 29.4543 139.631 29.9067 140.235 29.9067H222.164L210.302 50.7157C210.101 51.0172 210.101 51.4193 210.302 51.7209C210.503 52.0225 210.804 52.2236 211.206 52.2236H220.153C220.455 52.2236 220.807 52.0728 220.957 51.8214L237.092 29.8564C237.092 29.8564 237.293 29.4543 237.293 29.2532V19.6027C237.293 19.0498 236.841 18.5974 236.237 18.5974Z" fill="#2A363B"/>
<path d="M180.445 37.1446C180.847 58.7578 172.956 74.9426 155.615 88.2121C155.364 88.4131 155.213 88.6644 155.213 88.966C155.213 89.2676 155.314 89.5692 155.515 89.7702L162.149 96.0029C162.149 96.0029 162.602 96.3045 162.853 96.3045C163.054 96.3045 163.305 96.2039 163.456 96.1034C182.908 81.3763 191.604 63.1809 191.704 37.1446V36.843H180.395V37.1446H180.445Z" fill="#2A363B"/>
<path d="M77.6065 75.6965V65.6439C77.6065 65.6439 77.6568 65.4931 77.7573 65.4931H82.3815C82.3815 65.4931 82.5323 65.4428 82.5323 65.3423V63.2312C82.5323 63.2312 82.482 63.0804 82.3815 63.0804H77.7573C77.7573 63.0804 77.6065 63.0302 77.6065 62.9296V55.6415C77.6065 55.6415 77.5562 55.4907 77.4557 55.4907H75.1436C75.1436 55.4907 74.9928 55.5409 74.9928 55.6415V62.9296C74.9928 62.9296 74.9426 63.0804 74.842 63.0804H70.2178C70.2178 63.0804 70.067 63.1307 70.067 63.2312V65.3423C70.067 65.3423 70.1173 65.4931 70.2178 65.4931H74.842C74.842 65.4931 74.9928 65.5433 74.9928 65.6439V75.6965C74.9928 75.6965 74.9426 75.8473 74.842 75.8473H67.2523C67.2523 75.8473 67.1015 75.8976 67.1015 75.9981V78.1091C67.1015 78.1091 67.1518 78.2599 67.2523 78.2599H85.3973C85.3973 78.2599 85.5481 78.2097 85.5481 78.1091V75.9981C85.5481 75.9981 85.4978 75.8473 85.3973 75.8473H77.8076C77.8076 75.8473 77.6568 75.797 77.6568 75.6965" fill="#2A363B"/>
<path d="M64.136 55.5409H61.8238C61.8238 55.5409 61.6731 55.5912 61.6731 55.6917V58.6573H64.2867V55.6917C64.2867 55.6917 64.2365 55.5409 64.136 55.5409Z" fill="#2A363B"/>
<path d="M69.2125 70.821V68.0062C69.2125 68.0062 69.2125 67.9057 69.112 67.8554L65.1412 66.1465C65.1412 66.1465 65.0407 65.9957 65.1412 65.8952C67.4533 63.8846 69.2628 62.1757 69.2628 62.1757C69.2628 62.1757 69.2125 62.1757 69.1623 62.1757H69.2628V59.7128C69.2628 59.7128 69.2125 59.562 69.112 59.562H56.9986C56.9986 59.562 56.8478 59.6123 56.8478 59.7128V62.0249C56.8478 62.0249 56.898 62.1757 56.9986 62.1757H65.4931C65.4931 62.1757 65.6941 62.3265 65.5936 62.427C63.4323 64.4878 59.5117 67.7046 54.8372 69.2125C54.7367 69.2125 54.6865 69.3633 54.787 69.4639L56.7975 71.6754C56.7975 71.6754 56.898 71.7257 56.9483 71.6754C58.0541 71.3739 59.763 70.2681 61.5223 68.911C61.6228 68.8607 61.7736 68.911 61.7736 69.0115V79.617C61.7736 79.617 61.8238 79.7678 61.9244 79.7678H64.2365C64.2365 79.7678 64.3873 79.7176 64.3873 79.617V68.9612C64.3873 68.9612 64.4878 68.7602 64.5883 68.8104L69.0618 70.9215C69.0618 70.9215 69.2628 70.9215 69.2628 70.7707" fill="#2A363B"/>
<path d="M26.539 65.1915V67.5539C26.539 67.5539 26.5893 67.6544 26.6898 67.6544H40.5625C40.5625 67.6544 40.7133 67.6041 40.7133 67.5539V65.1915C40.7133 65.1915 40.663 65.0407 40.5625 65.0407H26.6898C26.6898 65.0407 26.539 65.091 26.539 65.1915Z" fill="#2A363B"/>
<path d="M23.2216 72.1781H27.9464C27.9464 72.1781 28.0972 72.2786 28.0469 72.3791L24.8803 79.0139C24.8803 79.0139 24.8803 79.2149 24.9809 79.2149H42.1709C42.1709 79.2149 42.3217 79.1647 42.3217 79.0641V76.6012C42.3217 76.6012 42.3217 76.6012 42.3217 76.551L41.3164 74.4399C41.3164 74.4399 41.2662 74.3897 41.2159 74.3897H38.6022C38.6022 74.3897 38.4514 74.4902 38.5017 74.5907L39.4064 76.4505C39.4064 76.4505 39.4064 76.6515 39.3059 76.6515H29.2532C29.2532 76.6515 29.1024 76.551 29.1527 76.4505L31.1632 72.3289C31.1632 72.3289 31.2135 72.2283 31.2638 72.2283H44.1312C44.1312 72.2283 44.282 72.1781 44.282 72.0776V69.7152C44.282 69.7152 44.2317 69.5644 44.1312 69.5644H23.3724C23.3724 69.5644 23.2216 69.6147 23.2216 69.7152V72.0776C23.2216 72.0776 23.2719 72.2283 23.3724 72.2283" fill="#2A363B"/>
<path d="M48.4035 63.3317C48.4035 63.3317 47.9009 63.2815 47.6999 63.2312C40.0096 61.4217 33.8775 55.6415 33.8272 55.5409L33.6764 55.3399L33.5256 55.5409C33.5256 55.5409 27.293 61.4217 19.6529 63.2312C19.5022 63.2312 19.3514 63.2815 19.2006 63.3317C18.9995 63.3317 18.899 63.5831 19.0498 63.7338L21.2614 66.3978H21.4122C27.2427 64.4375 31.9172 60.2657 33.4251 58.9588C33.6261 58.808 33.8775 58.808 34.0785 58.9588C35.5361 60.2657 40.2609 64.4375 46.0914 66.3475H46.2422L48.6549 63.5328C48.7051 63.4323 48.6549 63.3317 48.5543 63.3317" fill="#2A363B"/>
<path d="M49.2078 30.2585V27.8961C49.2078 27.8961 49.1575 27.7453 49.057 27.7453H32.5203C32.5203 27.7453 32.3696 27.6448 32.4198 27.5945C32.7214 26.6898 32.9727 25.7348 33.1738 24.7295C33.1738 24.629 33.1738 24.5787 33.023 24.5787H30.2585C30.2585 24.5787 30.1077 24.629 30.1077 24.7295C30.1077 25.6845 29.9067 26.6898 29.5548 27.6951C29.5548 27.7453 29.5045 27.7956 29.404 27.7956H20.9095C20.9095 27.7956 20.7587 27.8459 20.7587 27.9464V30.3088C20.7587 30.3088 20.809 30.4596 20.9095 30.4596H27.8961C27.8961 30.4596 28.0972 30.5601 27.9967 30.6606C25.8353 33.8775 22.3169 36.7927 18.8487 38.3509C18.7482 38.3509 18.7482 38.5017 18.8487 38.5519L21.3619 40.8138C21.3619 40.8138 21.4624 40.8138 21.5127 40.8138C23.9253 39.1551 26.1872 37.4964 28.0972 35.2848C28.1977 35.1843 28.3485 35.2848 28.3485 35.3854V49.2078C28.3485 49.2078 28.3988 49.3585 28.4993 49.3585H30.8617C30.8617 49.3585 31.0124 49.3083 31.0124 49.2078V43.7291C31.0124 43.7291 31.0627 43.5783 31.1632 43.5783H39.7583C39.7583 43.5783 39.909 43.6285 39.909 43.7291V49.2078C39.909 49.2078 39.9593 49.3585 40.0598 49.3585H42.4222C42.4222 49.3585 42.573 49.3083 42.573 49.2078V32.5203C42.573 32.5203 42.5227 32.3696 42.4222 32.3696H30.3088C30.6606 31.7664 31.0124 31.1632 31.314 30.5098C31.314 30.5098 31.3643 30.4093 31.4146 30.4093H49.057C49.057 30.4093 49.2078 30.359 49.2078 30.2585ZM39.7583 41.4169H31.1632C31.1632 41.4169 31.0124 41.3667 31.0124 41.2662V39.4064C31.0124 39.4064 31.0627 39.2556 31.1632 39.2556H39.7583C39.7583 39.2556 39.909 39.3059 39.909 39.4064V41.2662C39.909 41.2662 39.8588 41.4169 39.7583 41.4169ZM39.909 35.0838V36.9435C39.909 36.9435 39.8588 37.0943 39.7583 37.0943H31.1632C31.1632 37.0943 31.0124 37.044 31.0124 36.9435V35.0838C31.0124 35.0838 31.0627 34.933 31.1632 34.933H39.7583C39.7583 34.933 39.909 34.9832 39.909 35.0838Z" fill="#2A363B"/>
<path d="M70.067 37.3456C70.067 37.3456 70.1173 37.1948 70.2178 37.1948H80.2705C80.2705 37.1948 80.4213 37.1446 80.4213 37.044V26.1369C80.4213 26.1369 80.371 25.9861 80.2705 25.9861H67.6041C67.6041 25.9861 67.4533 26.0364 67.4533 26.1369V49.1072C67.4533 49.1072 67.5036 49.258 67.6041 49.258L75.1436 48.8057C75.1436 48.8057 75.2441 48.7554 75.2441 48.6549V45.6391C75.2441 45.6391 75.1939 45.4883 75.0933 45.4883L70.2178 46.192C70.2178 46.192 70.067 46.192 70.067 46.0412V37.2451V37.3456ZM77.6568 34.5811H70.2178C70.2178 34.5811 70.067 34.5309 70.067 34.4304V32.8219C70.067 32.8219 70.1173 32.6711 70.2178 32.6711H77.6568C77.6568 32.6711 77.8076 32.7214 77.8076 32.8219V34.4304C77.8076 34.4304 77.7573 34.5811 77.6568 34.5811ZM77.8076 28.8009V30.4093C77.8076 30.4093 77.7573 30.5601 77.6568 30.5601H70.2178C70.2178 30.5601 70.067 30.5098 70.067 30.4093V28.8009C70.067 28.8009 70.1173 28.6501 70.2178 28.6501H77.6568C77.6568 28.6501 77.8076 28.7003 77.8076 28.8009Z" fill="#2A363B"/>
<path d="M76.5007 41.2159L78.5113 40.4117C78.5113 40.4117 78.6118 40.3614 78.6118 40.3112V37.798C78.6118 37.798 78.5113 37.6472 78.4107 37.6975C77.6065 38.1498 74.5907 39.708 71.3236 40.3614C71.2733 40.3614 71.2231 40.4117 71.2231 40.4619V43.0254C71.2231 43.0254 71.3739 43.1762 71.4744 43.1259L73.9373 42.1709C73.9373 42.1709 74.0378 42.1709 74.0881 42.1709C76.0483 44.8851 78.7123 47.4485 82.4318 49.2078C82.4318 49.2078 82.5323 49.2078 82.5826 49.2078L85.4476 46.9962C85.4476 46.9962 85.4978 46.7951 85.4476 46.7449C82.281 46.0412 78.2097 43.2767 76.5007 41.3667C76.4505 41.3164 76.5007 41.1656 76.551 41.1656" fill="#2A363B"/>
<path d="M60.2657 42.5227C62.6783 39.9593 62.6783 35.9885 60.3662 33.3748C60.3159 33.2743 60.2657 33.1738 60.3662 33.0732L62.2259 28.8511C62.2259 28.8511 62.2259 28.6501 62.1254 28.6501H58.4059C58.4059 28.6501 58.2551 28.7003 58.2551 28.8009V49.1575C58.2551 49.1575 58.2049 49.3083 58.1546 49.3083H55.7922C55.7922 49.3083 55.6415 49.258 55.6415 49.1575V26.1872C55.6415 26.1872 55.6917 26.0866 55.7922 26.0866H66.0962C66.3978 26.0866 66.5486 26.3882 66.4481 26.6395L63.5328 33.1235C63.5328 33.1235 63.5328 33.3246 63.5328 33.4251C65.8449 36.0388 65.7946 39.909 63.5328 42.5227C63.4825 42.573 63.382 42.6233 63.3317 42.6233H60.3159L60.2657 42.5227Z" fill="#2A363B"/>
<path d="M73.1833 104.347H31.1632C13.9732 104.347 0 90.3734 0 73.1331V31.1632C0 13.9732 13.9732 0 31.1632 0H73.1331C90.3231 0 104.296 13.9732 104.296 31.1632V73.1331C104.296 90.3231 90.3231 104.347 73.1331 104.347M31.1632 2.71422C15.4811 2.71422 2.71422 15.4811 2.71422 31.1632V73.1331C2.71422 88.8152 15.4811 101.632 31.2135 101.632H73.1833C88.8655 101.632 101.683 88.8655 101.683 73.1331V31.1632C101.683 15.4811 88.9158 2.66395 73.1833 2.66395H31.1632V2.71422Z" fill="#2A363B"/>
</g>
</svg>
