<svg preserveAspectRatio="none" width="100%" height="100%" overflow="visible" style="display: block;" viewBox="0 0 32 24" fill="none" xmlns="http://www.w3.org/2000/svg">
<path id="&#226;&#128;&#156;" d="M8.3237 11.8125C9.34104 12.0625 10.2505 12.5937 11.052 13.4062C12.2235 14.5938 12.8092 16.0625 12.8092 17.8125C12.8092 19.5313 12.2235 21 11.052 22.2188C9.88054 23.4063 8.46243 24 6.79769 24C5.31792 24 3.89981 23.4375 2.54335 22.3125C1.21773 21.2187 0.416185 19.625 0.138728 17.5312C0.0462428 16.8125 0 16.1094 0 15.4219C0 12.9219 0.601156 10.4687 1.80347 8.0625C4.05395 3.59375 6.85934 1 10.2197 0.28125C11.1137 0.09375 11.9923 0 12.8555 0C13.3487 0 13.8728 0.03125 14.4277 0.09375C13.7803 1.90625 13.1792 3.60938 12.6243 5.20312C11.3295 5.35937 10.2351 6.14062 9.34104 7.54688C8.66281 8.60937 8.3237 9.70312 8.3237 10.8281C8.3237 11.1719 8.3237 11.5 8.3237 11.8125ZM25.896 11.8125C26.9133 12.0625 27.8227 12.5937 28.6243 13.4062C29.7958 14.5938 30.3815 16.0625 30.3815 17.8125C30.3815 19.5313 29.7958 21 28.6243 22.2188C27.4528 23.4063 26.0347 24 24.3699 24C22.8902 24 21.4721 23.4375 20.1156 22.3125C18.79 21.2187 17.9884 19.625 17.711 17.5312C17.6185 16.8125 17.5723 16.1094 17.5723 15.4219C17.5723 12.9219 18.1734 10.4687 19.3757 8.0625C21.6262 3.59375 24.4316 1 27.7919 0.28125C28.6859 0.09375 29.5645 0 30.4277 0C30.921 0 31.4451 0.03125 32 0.09375C31.3526 1.90625 30.7514 3.60938 30.1965 5.20312C28.9017 5.35937 27.8073 6.14062 26.9133 7.54688C26.2351 8.60937 25.896 9.70312 25.896 10.8281C25.896 11.1719 25.896 11.5 25.896 11.8125Z" fill="var(--fill-0, #3CB1FF)"/>
</svg>
